{"glyphs":{"0":{"ha":829,"x_min":0,"x_max":0,"o":"m 413 -14 l 413 -14 b 754 497 660 -14 754 215 b 413 1007 754 779 660 1007 b 72 497 168 1007 72 779 b 413 -14 72 215 168 -14 z m 413 174 l 413 174 b 265 497 303 174 265 318 b 413 821 265 675 303 821 b 563 497 525 821 563 675 b 413 174 563 318 525 174 z "},"1":{"ha":514,"x_min":0,"x_max":0,"o":"m 42 793 l 204 793 l 204 0 l 401 0 l 401 992 l 42 992 l 42 793 l 42 793 z "},"2":{"ha":724,"x_min":0,"x_max":0,"o":"m 379 589 l 379 589 l 8 0 l 664 0 l 664 201 l 369 201 l 565 504 b 343 1007 732 736 635 992 b 49 917 246 1011 125 972 l 97 725 b 326 804 129 753 239 810 b 429 704 385 801 429 760 b 379 589 429 704 432 664 z "},"3":{"ha":694,"x_min":0,"x_max":0,"o":"m 225 406 l 321 406 b 431 296 381 406 429 351 b 63 238 435 138 147 196 l 40 36 b 349 -8 103 10 250 -14 b 642 296 542 1 646 128 b 526 507 640 374 606 461 b 632 701 607 560 633 624 b 325 1007 628 871 504 996 b 64 967 226 1011 126 992 l 94 779 b 419 701 172 819 415 847 b 317 608 421 644 376 608 l 221 608 l 225 406 l 225 406 z "},"4":{"ha":750,"x_min":0,"x_max":0,"o":"m 607 1 l 607 250 l 715 250 l 715 449 l 607 449 l 607 750 l 408 617 l 408 449 l 282 449 l 485 993 l 276 993 l -6 250 l 408 250 l 408 1 l 607 1 l 607 1 z "},"5":{"ha":729,"x_min":0,"x_max":0,"o":"m 293 629 l 293 803 l 599 803 l 599 993 l 93 993 l 93 471 b 469 296 396 449 469 413 b 74 233 471 213 382 128 l 56 36 b 372 -8 186 -8 321 -11 b 671 292 558 1 671 126 b 293 629 671 521 543 607 l 293 629 z "},"6":{"ha":704,"x_min":0,"x_max":0,"o":"m 358 572 l 532 992 l 317 992 l 86 438 b 346 -11 -3 222 107 -6 b 647 285 538 -14 647 124 b 358 572 647 471 532 574 l 358 572 z m 451 286 b 243 289 444 151 244 156 b 451 286 242 431 457 426 l 451 286 z "},"7":{"ha":678,"x_min":0,"x_max":0,"o":"m 85 0 l 85 0 l 299 0 l 704 992 l 22 992 l 22 804 l 422 804 l 85 0 z "},"8":{"ha":725,"x_min":0,"x_max":0,"o":"m 653 701 l 653 701 b 351 1004 653 900 501 1004 b 53 701 201 1004 53 900 b 147 497 53 619 83 546 b 53 293 79 447 53 378 b 356 -11 53 93 188 -11 b 654 293 524 -11 654 94 b 558 497 654 378 626 447 b 653 701 624 546 653 619 z m 353 596 l 353 596 b 244 700 299 596 244 631 b 353 804 244 771 299 804 b 460 700 407 804 460 771 b 353 596 460 631 407 596 z m 353 186 l 353 186 b 243 293 290 186 243 235 b 353 400 243 353 290 400 b 461 293 415 400 461 353 b 353 186 461 235 415 186 z "},"9":{"ha":711,"x_min":0,"x_max":0,"o":"m 343 418 l 171 0 l 385 0 l 617 553 b 357 1001 704 768 597 997 b 56 706 165 1006 56 868 b 343 418 56 521 171 417 l 343 418 z m 256 704 b 454 700 261 832 454 829 b 256 704 456 567 250 571 l 256 704 z "},"A":{"ha":907,"x_min":0,"x_max":0,"o":"m 22 0 l 247 0 l 286 107 l 615 107 l 656 0 l 879 0 l 461 1029 l 440 1029 l 22 0 l 22 0 z m 358 293 l 451 551 l 542 293 l 358 293 l 358 293 z "},"B":{"ha":863,"x_min":0,"x_max":0,"o":"m 311 796 l 488 796 b 579 696 544 796 579 751 b 488 596 579 642 544 596 l 431 596 l 311 596 l 311 796 l 311 796 z m 111 0 l 504 0 b 797 299 665 0 797 132 b 694 497 797 376 760 453 b 786 693 757 540 783 618 b 504 994 790 868 681 994 l 111 994 l 111 0 l 111 0 l 111 0 z m 311 397 l 488 397 b 588 299 544 397 588 354 b 488 199 588 243 544 199 l 431 199 l 311 199 l 311 397 l 311 397 z "},"C":{"ha":836,"x_min":0,"x_max":0,"o":"m 743 763 l 743 763 l 767 967 b 571 1006 707 993 640 1006 b 571 -3 -101 1006 -103 -3 b 789 39 640 -3 728 14 l 763 244 b 571 200 725 225 657 200 b 571 806 178 200 178 806 b 743 763 657 806 706 782 z "},"D":{"ha":978,"x_min":0,"x_max":0,"o":"m 407 993 l 111 993 l 111 0 l 407 0 b 407 993 1068 0 1068 993 l 407 993 z m 407 794 b 407 199 793 794 793 199 l 310 199 l 310 794 l 407 794 l 407 794 z "},"E":{"ha":700,"x_min":0,"x_max":0,"o":"m 625 0 l 625 0 l 625 199 l 310 199 l 310 397 l 571 397 l 571 596 l 310 596 l 310 794 l 608 794 l 608 993 l 111 993 l 111 0 l 625 0 z "},"F":{"ha":660,"x_min":0,"x_max":0,"o":"m 607 794 l 607 794 l 607 993 l 111 993 l 111 0 l 310 0 l 310 397 l 563 397 l 563 596 l 310 596 l 310 794 l 607 794 z "},"G":{"ha":935,"x_min":0,"x_max":0,"o":"m 828 61 l 828 61 l 828 497 l 626 497 l 626 199 b 571 193 608 196 589 193 b 571 800 188 193 169 786 b 779 764 676 803 740 781 l 803 965 b 571 1001 785 971 689 1006 b 571 -6 -118 976 -85 -6 b 828 61 665 -6 751 18 z "},"H":{"ha":918,"x_min":0,"x_max":0,"o":"m 806 0 l 806 993 l 607 993 l 607 596 l 310 596 l 310 993 l 111 993 l 111 0 l 310 0 l 310 397 l 607 397 l 607 0 l 806 0 l 806 0 z "},"I":{"ha":422,"x_min":0,"x_max":0,"o":"m 310 0 l 310 993 l 111 993 l 111 0 l 310 0 l 310 0 z "},"K":{"ha":839,"x_min":0,"x_max":0,"o":"m 111 0 l 310 0 b 310 389 310 128 310 261 l 574 0 l 819 0 l 469 503 l 792 993 l 560 993 l 310 597 b 310 993 310 729 310 861 l 111 993 l 111 0 l 111 0 z "},"L":{"ha":685,"x_min":0,"x_max":0,"o":"m 111 993 l 111 993 l 111 0 l 625 0 l 625 199 l 310 199 l 310 993 l 111 993 z "},"M":{"ha":1133,"x_min":0,"x_max":0,"o":"m 567 572 l 175 1008 l 111 1008 l 111 0 l 313 0 l 313 554 l 567 288 l 821 554 l 819 0 l 1021 0 l 1021 1008 l 958 1008 l 567 572 l 567 572 z "},"N":{"ha":978,"x_min":0,"x_max":0,"o":"m 310 540 l 310 540 l 813 -21 l 865 -21 l 865 992 l 665 992 l 665 431 l 164 1014 l 111 1014 l 111 0 l 310 0 l 310 540 z "},"O":{"ha":1176,"x_min":0,"x_max":0,"o":"m 589 -14 l 589 -14 b 589 1010 1272 -14 1272 1010 b 589 -14 -94 1010 -94 -14 z m 589 192 l 589 192 b 589 806 192 192 192 806 b 589 192 986 806 986 192 z "},"P":{"ha":838,"x_min":0,"x_max":0,"o":"m 310 0 l 310 379 l 501 379 b 501 992 886 379 888 992 l 111 992 l 111 0 l 310 0 l 310 0 z m 310 572 l 310 794 l 485 794 b 485 572 618 794 618 572 l 310 572 l 310 572 z "},"Q":{"ha":1165,"x_min":0,"x_max":0,"o":"m 522 421 l 689 217 b 576 197 657 204 619 197 b 576 797 189 197 189 797 b 826 332 846 797 928 510 l 757 421 l 522 421 l 522 421 z m 822 51 l 871 -6 l 1090 -6 l 960 161 b 576 999 1200 444 1072 999 b 576 -3 -90 999 -90 -3 b 822 51 674 -3 754 17 l 822 51 z "},"R":{"ha":851,"x_min":0,"x_max":0,"o":"m 831 0 l 831 0 l 600 410 b 503 993 892 494 857 993 l 111 993 l 111 0 l 310 0 l 310 379 l 406 379 l 606 0 z m 310 794 l 485 794 b 485 572 619 794 619 572 l 310 572 l 310 572 z "},"S":{"ha":735,"x_min":0,"x_max":0,"o":"m 65 64 b 379 -8 200 -6 324 -12 b 679 293 565 1 679 128 b 392 597 679 451 546 540 b 281 697 335 617 286 642 b 379 808 276 753 308 804 b 582 767 410 810 472 811 l 607 958 b 360 1000 479 1003 411 1003 b 79 697 194 992 79 864 b 374 394 79 531 218 451 b 476 293 429 375 472 350 b 374 193 482 239 432 197 b 90 272 328 189 204 192 l 65 64 l 65 64 z "},"T":{"ha":760,"x_min":0,"x_max":0,"o":"m 474 0 l 474 794 l 721 794 l 721 992 l 28 992 l 28 794 l 275 794 l 275 0 l 474 0 l 474 0 z "},"U":{"ha":932,"x_min":0,"x_max":0,"o":"m 824 346 l 824 993 l 626 993 l 626 347 b 304 347 626 139 304 139 l 304 993 l 106 993 l 106 346 b 824 346 106 -126 824 -126 l 824 346 z "},"V":{"ha":885,"x_min":0,"x_max":0,"o":"m 464 -21 l 875 993 l 646 993 l 513 656 l 442 457 l 369 663 l 238 993 l 8 993 l 419 -21 z "},"W":{"ha":1264,"x_min":0,"x_max":0,"o":"m 450 -21 l 631 424 l 813 -17 l 849 -17 l 1254 993 l 1031 993 l 831 486 l 636 983 l 626 983 l 432 486 l 232 993 l 8 993 l 415 -21 z "},"Y":{"ha":901,"x_min":0,"x_max":0,"o":"m 354 0 l 354 0 l 551 0 l 551 447 l 899 993 l 656 993 l 453 651 l 250 993 l 8 993 l 354 447 l 354 0 z "},"X":{"ha":876,"x_min":0,"x_max":0,"o":"m 8 0 l 8 0 l 250 0 l 442 340 l 632 0 l 867 0 l 554 529 l 825 994 l 590 994 l 442 718 l 292 994 l 51 994 l 321 529 l 8 0 z "},"J":{"ha":646,"x_min":0,"x_max":0,"o":"m 44 0 l 240 0 b 536 299 436 0 536 96 l 536 993 l 335 993 l 335 299 b 235 199 335 243 292 199 l 44 199 l 44 0 l 44 0 z "},"?":{"ha":667,"x_min":0,"x_max":0,"o":"m 419 286 b 626 736 440 486 628 546 b 31 708 624 1115 10 1100 l 221 708 b 431 708 219 867 446 858 b 222 286 431 649 233 464 z m 439 96 b 207 96 439 -51 207 -51 b 439 96 207 246 439 246 z "},"!":{"ha":383,"x_min":0,"x_max":0,"o":"m 310 101 b 82 101 310 249 82 249 b 310 101 82 -46 310 -46 z m 89 625 b 118 297 99 517 107 396 b 275 297 169 297 224 297 b 303 625 286 396 294 517 l 303 993 l 89 993 z "},"¨":{"ha":708,"x_min":0,"x_max":0,"o":"m 74 881 b 186 768 74 817 125 769 b 300 881 250 768 300 817 b 186 994 300 946 250 994 b 74 881 125 994 74 946 z m 417 881 b 529 768 417 817 469 768 b 643 881 593 769 643 817 b 529 994 643 946 593 994 b 417 881 469 994 417 946 z "},"-":{"ha":631,"x_min":0,"x_max":0,"o":"m 53 382 l 558 382 l 558 567 l 53 567 z "},".":{"ha":339,"x_min":0,"x_max":0,"o":"m 153 214 b 153 -10 3 214 3 -10 b 153 214 301 -10 306 214 z "},",":{"ha":333,"x_min":0,"x_max":0,"o":"m 79 153 l 21 -161 l 176 -161 l 285 153 z "},"¸":{"ha":547,"x_min":0,"x_max":0,"o":"m 39 -342 b 414 -339 179 -450 343 -437 b 306 -67 501 -226 442 -76 l 317 15 l 185 15 l 151 -165 b 294 -219 204 -153 292 -161 b 243 -262 294 -244 268 -260 b 115 -226 199 -272 149 -250 z "},"˜":{"ha":615,"x_min":0,"x_max":0,"o":"m 188 814 b 382 803 233 910 294 806 b 542 947 460 800 517 857 l 422 1001 b 225 1013 374 906 314 1010 b 67 867 147 1015 93 956 z "},"ˇ":{"ha":621,"x_min":0,"x_max":0,"o":"m 351 996 l 300 931 l 250 996 l 40 996 l 236 801 l 364 801 l 563 996 z "},"ˆ":{"ha":608,"x_min":0,"x_max":0,"o":"m 563 815 l 364 1010 l 236 1010 l 40 815 l 250 815 l 300 881 l 351 815 z "},"`":{"ha":488,"x_min":0,"x_max":0,"o":"m 83 992 l 224 796 l 415 796 l 342 992 z "},"´":{"ha":443,"x_min":0,"x_max":0,"o":"m 139 999 l 65 803 l 253 803 l 393 999 z "},"˛":{"ha":442,"x_min":0,"x_max":0,"o":"m 172 18 b 60 -271 96 -50 6 -171 b 332 -325 107 -362 236 -360 l 319 -190 b 222 -187 289 -206 236 -215 b 310 18 194 -133 268 -33 z "},"Ł":{"ha":679,"x_min":0,"x_max":0,"o":"m 118 524 l 0 483 l 0 304 l 118 344 l 118 0 l 629 0 l 629 200 l 315 200 l 315 411 l 515 479 l 515 658 l 315 592 l 315 993 l 118 993 z "},"Œ":{"ha":1188,"x_min":0,"x_max":0,"o":"m 554 -7 b 647 0 588 -7 618 -7 l 1108 0 l 1108 197 l 814 197 l 814 403 l 1056 403 l 1056 597 l 814 597 l 814 794 l 1094 794 l 1094 993 l 647 993 b 554 999 618 996 588 999 b 554 -7 -117 999 -117 -7 z m 628 172 b 554 169 606 169 582 169 b 263 500 358 169 263 349 b 554 825 265 647 363 825 b 628 822 585 825 608 825 z "},"Æ":{"ha":1104,"x_min":0,"x_max":0,"o":"m 25 0 l 268 0 l 332 153 l 561 153 l 561 0 l 1029 0 l 1029 199 l 760 199 l 760 396 l 976 396 l 976 599 l 760 599 l 760 799 l 1015 799 l 1015 993 l 508 993 z m 411 338 l 561 694 l 561 338 z "},"Ø":{"ha":1144,"x_min":0,"x_max":0,"o":"m 739 972 b 565 999 688 990 629 999 b 238 104 35 999 -76 367 l 122 -96 l 326 -96 l 393 18 b 565 -6 444 3 501 -6 b 894 888 1097 -6 1207 626 l 1010 1088 l 806 1088 z m 789 704 b 565 196 932 535 857 196 b 496 197 542 196 517 193 z m 343 286 b 565 797 199 456 275 797 b 636 794 590 797 615 800 z "},"ı":{"ha":422,"x_min":0,"x_max":0,"o":"m 310 0 l 310 993 l 111 993 l 111 0 l 310 0 l 310 0 z "}," ":{"ha":394,"x_min":0,"x_max":0,"o":""},"ł":{"ha":679,"x_min":0,"x_max":0,"o":"m 118 524 l 0 483 l 0 304 l 118 344 l 118 0 l 629 0 l 629 200 l 315 200 l 315 411 l 515 479 l 515 658 l 315 592 l 315 993 l 118 993 z "},"Ž":{"ha":743,"x_min":0,"x_max":0,"o":"m 696 0 l 696 0 l 696 200 l 326 200 b 685 993 446 464 565 728 l 685 993 l 83 993 l 83 800 l 389 800 b 31 0 269 535 150 267 l 31 0 z m 449 1239 l 396 1179 l 344 1239 l 132 1239 l 331 1061 l 461 1061 l 664 1239 z "},"ž":{"ha":743,"x_min":0,"x_max":0,"o":"m 696 0 l 696 0 l 696 200 l 326 200 b 685 993 446 464 565 728 l 685 993 l 83 993 l 83 800 l 389 800 b 31 0 269 535 150 267 l 31 0 z m 449 1239 l 396 1179 l 344 1239 l 132 1239 l 331 1061 l 461 1061 l 664 1239 z "},"˘":{"ha":508,"x_min":0,"x_max":0,"o":"m 257 944 b 193 1003 222 944 193 958 l 63 1003 b 257 806 50 835 189 806 b 451 1003 329 806 464 835 l 321 1003 b 257 944 321 958 292 944 z "},"…":{"ha":1017,"x_min":0,"x_max":0,"o":"m 153 214 b 153 -10 3 214 3 -10 b 153 214 301 -10 306 214 z m 492 214 b 492 -10 342 214 342 -10 b 492 214 640 -10 644 214 z m 831 214 b 831 -10 681 214 681 -10 b 831 214 979 -10 983 214 z "},"'":{"ha":278,"x_min":0,"x_max":0,"o":"m 50 686 l 210 686 l 231 992 l 50 992 z "},"\"":{"ha":542,"x_min":0,"x_max":0,"o":"m 50 686 l 210 686 l 231 992 l 50 992 z m 328 686 l 488 686 l 508 992 l 328 992 z "},"$":{"ha":735,"x_min":0,"x_max":0,"o":"m 65 64 b 286 -4 147 21 225 3 l 286 -131 l 463 -131 l 463 4 b 679 293 599 42 679 154 b 392 597 679 451 546 540 b 281 697 335 617 286 642 b 379 808 276 753 308 804 b 582 767 410 810 472 811 l 607 958 b 463 996 547 979 500 990 l 463 1121 l 286 1121 l 286 988 b 79 697 161 950 79 838 b 374 394 79 531 218 451 b 476 293 429 375 472 350 b 374 193 482 239 432 197 b 90 272 328 189 204 192 z "},"/":{"ha":586,"x_min":0,"x_max":0,"o":"m 206 0 l 596 993 l 390 993 l 0 0 l 206 0 l 206 0 z "},":":{"ha":321,"x_min":0,"x_max":0,"o":"m 153 214 b 153 -10 3 214 3 -10 b 153 214 301 -10 306 214 z m 153 619 b 153 396 3 619 3 396 b 153 619 301 396 306 619 z "},";":{"ha":321,"x_min":0,"x_max":0,"o":"m 153 619 b 153 396 3 619 3 396 b 153 619 301 396 306 619 z m 64 144 l 6 -169 l 161 -169 l 269 144 z "},"„":{"ha":632,"x_min":0,"x_max":0,"o":"m 79 153 l 21 -161 l 176 -161 l 285 153 z m 388 153 l 329 -161 l 485 -161 l 593 153 z "},"˝":{"ha":735,"x_min":0,"x_max":0,"o":"m 133 999 l 65 807 l 239 807 l 368 999 z m 438 999 l 369 807 l 543 807 l 672 999 z "},"˙":{"ha":339,"x_min":0,"x_max":0,"o":"m 153 1006 b 153 782 3 1006 3 782 b 153 1006 301 782 306 1006 z "},"˚":{"ha":497,"x_min":0,"x_max":0,"o":"m 253 885 b 253 740 353 885 350 740 b 253 885 156 740 156 885 z m 251 1006 b 251 622 -6 1006 -6 622 b 251 1006 507 622 514 1006 z "},"a":{"ha":907,"x_min":0,"x_max":0,"o":"m 22 0 l 247 0 l 286 107 l 615 107 l 656 0 l 879 0 l 461 1029 l 440 1029 l 22 0 l 22 0 z m 358 293 l 451 551 l 542 293 l 358 293 l 358 293 z "},"b":{"ha":863,"x_min":0,"x_max":0,"o":"m 311 796 l 488 796 b 579 696 544 796 579 751 b 488 596 579 642 544 596 l 431 596 l 311 596 l 311 796 l 311 796 z m 111 0 l 504 0 b 797 299 665 0 797 132 b 694 497 797 376 760 453 b 786 693 757 540 783 618 b 504 994 790 868 681 994 l 111 994 l 111 0 l 111 0 l 111 0 z m 311 397 l 488 397 b 588 299 544 397 588 354 b 488 199 588 243 544 199 l 431 199 l 311 199 l 311 397 l 311 397 z "},"c":{"ha":836,"x_min":0,"x_max":0,"o":"m 743 763 l 743 763 l 767 967 b 571 1006 707 993 640 1006 b 571 -3 -101 1006 -103 -3 b 789 39 640 -3 728 14 l 763 244 b 571 200 725 225 657 200 b 571 806 178 200 178 806 b 743 763 657 806 706 782 z "},"d":{"ha":978,"x_min":0,"x_max":0,"o":"m 407 993 l 111 993 l 111 0 l 407 0 b 407 993 1068 0 1068 993 l 407 993 z m 407 794 b 407 199 793 794 793 199 l 310 199 l 310 794 l 407 794 l 407 794 z "},"e":{"ha":700,"x_min":0,"x_max":0,"o":"m 625 0 l 625 0 l 625 199 l 310 199 l 310 397 l 571 397 l 571 596 l 310 596 l 310 794 l 608 794 l 608 993 l 111 993 l 111 0 l 625 0 z "},"f":{"ha":660,"x_min":0,"x_max":0,"o":"m 607 794 l 607 794 l 607 993 l 111 993 l 111 0 l 310 0 l 310 397 l 563 397 l 563 596 l 310 596 l 310 794 l 607 794 z "},"g":{"ha":935,"x_min":0,"x_max":0,"o":"m 828 61 l 828 61 l 828 497 l 626 497 l 626 199 b 571 193 608 196 589 193 b 571 800 188 193 169 786 b 779 764 676 803 740 781 l 803 965 b 571 1001 785 971 689 1006 b 571 -6 -118 976 -85 -6 b 828 61 665 -6 751 18 z "},"h":{"ha":918,"x_min":0,"x_max":0,"o":"m 806 0 l 806 993 l 607 993 l 607 596 l 310 596 l 310 993 l 111 993 l 111 0 l 310 0 l 310 397 l 607 397 l 607 0 l 806 0 l 806 0 z "},"i":{"ha":422,"x_min":0,"x_max":0,"o":"m 310 0 l 310 993 l 111 993 l 111 0 l 310 0 l 310 0 z "},"j":{"ha":646,"x_min":0,"x_max":0,"o":"m 44 0 l 240 0 b 533 299 403 0 533 133 l 533 993 l 336 993 l 336 299 b 235 199 336 243 292 199 l 44 199 l 44 0 l 44 0 z "},"k":{"ha":839,"x_min":0,"x_max":0,"o":"m 111 0 l 310 0 b 310 389 310 128 310 261 l 574 0 l 819 0 l 469 503 l 792 993 l 560 993 l 310 597 b 310 993 310 729 310 861 l 111 993 l 111 0 l 111 0 z "},"l":{"ha":685,"x_min":0,"x_max":0,"o":"m 111 993 l 111 993 l 111 0 l 625 0 l 625 199 l 310 199 l 310 993 l 111 993 z "},"m":{"ha":1133,"x_min":0,"x_max":0,"o":"m 567 572 l 175 1008 l 111 1008 l 111 0 l 313 0 l 313 554 l 567 288 l 821 554 l 819 0 l 1021 0 l 1021 1008 l 958 1008 l 567 572 l 567 572 z "},"n":{"ha":978,"x_min":0,"x_max":0,"o":"m 310 540 l 310 540 l 813 -21 l 865 -21 l 865 992 l 665 992 l 665 431 l 164 1014 l 111 1014 l 111 0 l 310 0 l 310 540 z "},"o":{"ha":1176,"x_min":0,"x_max":0,"o":"m 589 -14 l 589 -14 b 589 1010 1272 -14 1272 1010 b 589 -14 -94 1010 -94 -14 z m 589 192 l 589 192 b 589 806 192 192 192 806 b 589 192 986 806 986 192 z "},"p":{"ha":838,"x_min":0,"x_max":0,"o":"m 310 0 l 310 379 l 501 379 b 501 992 886 379 888 992 l 111 992 l 111 0 l 310 0 l 310 0 z m 310 572 l 310 794 l 485 794 b 485 572 618 794 618 572 l 310 572 l 310 572 z "},"q":{"ha":1165,"x_min":0,"x_max":0,"o":"m 522 421 l 689 217 b 576 197 657 204 619 197 b 576 797 189 197 189 797 b 826 332 846 797 928 510 l 757 421 l 522 421 l 522 421 z m 822 51 l 871 -6 l 1090 -6 l 960 161 b 576 999 1200 444 1072 999 b 576 -3 -90 999 -90 -3 b 822 51 674 -3 754 17 l 822 51 z "},"r":{"ha":851,"x_min":0,"x_max":0,"o":"m 831 0 l 831 0 l 600 410 b 503 993 892 494 857 993 l 111 993 l 111 0 l 310 0 l 310 379 l 406 379 l 606 0 z m 310 794 l 485 794 b 485 572 619 794 619 572 l 310 572 l 310 572 z "},"s":{"ha":735,"x_min":0,"x_max":0,"o":"m 65 64 b 379 -8 200 -6 324 -12 b 679 293 565 1 679 128 b 392 597 679 451 546 540 b 281 697 335 617 286 642 b 379 808 276 753 308 804 b 582 767 410 810 472 811 l 607 958 b 360 1000 479 1003 411 1003 b 79 697 194 992 79 864 b 374 394 79 531 218 451 b 476 293 429 375 472 350 b 374 193 482 239 432 197 b 90 272 328 189 204 192 l 65 64 l 65 64 z "},"t":{"ha":760,"x_min":0,"x_max":0,"o":"m 474 0 l 474 794 l 721 794 l 721 992 l 28 992 l 28 794 l 275 794 l 275 0 l 474 0 l 474 0 z "},"u":{"ha":932,"x_min":0,"x_max":0,"o":"m 824 346 l 824 993 l 626 993 l 626 347 b 304 347 626 139 304 139 l 304 993 l 106 993 l 106 346 b 824 346 106 -126 824 -126 l 824 346 z "},"v":{"ha":885,"x_min":0,"x_max":0,"o":"m 464 -21 l 875 993 l 646 993 l 513 656 l 442 457 l 369 663 l 238 993 l 8 993 l 419 -21 z "},"w":{"ha":1264,"x_min":0,"x_max":0,"o":"m 450 -21 l 631 424 l 813 -17 l 849 -17 l 1254 993 l 1031 993 l 831 486 l 636 983 l 626 983 l 432 486 l 232 993 l 8 993 l 415 -21 z "},"x":{"ha":876,"x_min":0,"x_max":0,"o":"m 8 0 l 8 0 l 250 0 l 442 340 l 632 0 l 867 0 l 554 529 l 825 994 l 590 994 l 442 718 l 292 994 l 51 994 l 321 529 l 8 0 z "},"y":{"ha":901,"x_min":0,"x_max":0,"o":"m 354 0 l 354 0 l 551 0 l 551 447 l 899 993 l 656 993 l 453 651 l 250 993 l 8 993 l 354 447 l 354 0 z "},"z":{"ha":743,"x_min":0,"x_max":0,"o":"m 696 0 l 696 0 l 696 200 l 326 200 b 685 993 446 464 565 728 l 685 993 l 83 993 l 83 800 l 389 800 b 31 0 269 535 150 267 l 31 0 l 696 0 z "},"œ":{"ha":1188,"x_min":0,"x_max":0,"o":"m 554 -7 b 647 0 588 -7 618 -7 l 1108 0 l 1108 197 l 814 197 l 814 403 l 1056 403 l 1056 597 l 814 597 l 814 794 l 1094 794 l 1094 993 l 647 993 b 554 999 618 996 588 999 b 554 -7 -117 999 -117 -7 z m 628 172 b 554 169 606 169 582 169 b 263 500 358 169 263 349 b 554 825 265 647 363 825 b 628 822 585 825 608 825 z "},"·":{"ha":339,"x_min":0,"x_max":0,"o":"m 153 589 b 153 365 3 589 3 365 b 153 589 301 365 306 589 z "},"Å":{"ha":907,"x_min":0,"x_max":0,"o":"m 450 1182 b 356 819 229 1182 197 900 l 22 0 l 247 0 l 286 107 l 615 107 l 656 0 l 879 0 l 546 821 b 450 1182 701 903 674 1182 z m 358 293 l 451 551 l 542 293 z m 451 1061 b 451 917 551 1061 549 917 b 451 1061 354 917 354 1061 z "},"Ç":{"ha":836,"x_min":0,"x_max":0,"o":"m 293 -311 b 668 -308 433 -414 597 -401 b 560 -53 756 -203 696 -62 l 567 -3 l 571 -3 b 789 39 640 -3 728 14 l 763 244 b 571 200 725 225 657 200 b 571 806 178 200 178 806 b 743 763 657 806 706 782 l 767 967 b 571 1006 707 993 640 1006 b 436 11 -53 1006 -99 136 l 406 -146 b 549 -197 458 -133 546 -142 b 497 -237 549 -219 522 -235 b 369 -203 453 -246 403 -225 z "},"å":{"ha":907,"x_min":0,"x_max":0,"o":"m 450 1182 b 356 819 229 1182 197 900 l 22 0 l 247 0 l 286 107 l 615 107 l 656 0 l 879 0 l 546 821 b 450 1182 701 903 674 1182 z m 358 293 l 451 551 l 542 293 z m 451 1061 b 451 917 551 1061 549 917 b 451 1061 354 917 354 1061 z "},"æ":{"ha":1104,"x_min":0,"x_max":0,"o":"m 25 0 l 268 0 l 332 153 l 561 153 l 561 0 l 1029 0 l 1029 199 l 760 199 l 760 396 l 976 396 l 976 599 l 760 599 l 760 799 l 1015 799 l 1015 993 l 508 993 z m 411 338 l 561 694 l 561 338 z "},"ç":{"ha":836,"x_min":0,"x_max":0,"o":"m 293 -311 b 668 -308 433 -414 597 -401 b 560 -53 756 -203 696 -62 l 567 -3 l 571 -3 b 789 39 640 -3 728 14 l 763 244 b 571 200 725 225 657 200 b 571 806 178 200 178 806 b 743 763 657 806 706 782 l 767 967 b 571 1006 707 993 640 1006 b 436 11 -53 1006 -99 136 l 406 -146 b 549 -197 458 -133 546 -142 b 497 -237 549 -219 522 -235 b 369 -203 453 -246 403 -225 z "},"Þ":{"ha":838,"x_min":0,"x_max":0,"o":"m 310 0 l 310 207 l 501 207 b 501 819 886 207 888 819 l 310 819 l 310 993 l 111 993 l 111 0 z m 310 400 l 310 622 l 485 622 b 485 400 618 622 618 400 z "},"þ":{"ha":838,"x_min":0,"x_max":0,"o":"m 310 0 l 310 207 l 501 207 b 501 819 886 207 888 819 l 310 819 l 310 993 l 111 993 l 111 0 z m 310 400 l 310 622 l 485 622 b 485 400 618 622 618 400 z "},"¿":{"ha":667,"x_min":0,"x_max":0,"o":"m 217 429 b 10 -21 196 229 8 169 b 606 7 13 -400 626 -385 l 415 7 b 206 7 417 -151 190 -143 b 414 429 206 67 403 251 z m 197 619 b 429 619 197 469 429 469 b 197 619 429 767 197 767 z "},"¡":{"ha":383,"x_min":0,"x_max":0,"o":"m 72 593 b 300 593 72 446 300 446 b 72 593 300 740 72 740 z m 293 69 b 264 397 283 178 275 299 b 107 397 213 397 158 397 b 79 69 96 299 88 178 l 79 -299 l 293 -299 z "},"Ÿ":{"ha":901,"x_min":0,"x_max":0,"o":"m 354 0 l 354 0 l 551 0 l 551 447 l 899 993 l 656 993 l 453 651 l 250 993 l 8 993 l 354 447 z m 165 1171 b 278 1058 165 1107 217 1060 b 392 1171 342 1058 392 1107 b 278 1285 392 1236 342 1285 b 165 1171 217 1285 165 1236 z m 508 1171 b 621 1058 508 1107 561 1058 b 735 1171 685 1060 735 1107 b 621 1285 735 1236 685 1285 b 508 1171 561 1285 508 1236 z "},"ÿ":{"ha":901,"x_min":0,"x_max":0,"o":"m 354 0 l 354 0 l 551 0 l 551 447 l 899 993 l 656 993 l 453 651 l 250 993 l 8 993 l 354 447 z m 165 1171 b 278 1058 165 1107 217 1060 b 392 1171 342 1058 392 1107 b 278 1285 392 1236 342 1285 b 165 1171 217 1285 165 1236 z m 508 1171 b 621 1058 508 1107 561 1058 b 735 1171 685 1060 735 1107 b 621 1285 735 1236 685 1285 b 508 1171 561 1285 508 1236 z "},"‚":{"ha":333,"x_min":0,"x_max":0,"o":"m 79 153 l 21 -161 l 176 -161 l 285 153 z "},"€":{"ha":710,"x_min":0,"x_max":0,"o":"m -7 335 l 100 335 b 581 -3 158 149 319 -3 b 671 4 608 -3 640 0 l 658 207 b 581 200 635 203 608 200 b 329 335 460 200 376 256 l 501 335 l 501 461 l 288 461 b 285 525 285 482 283 503 l 501 525 l 501 651 l 317 651 b 576 806 360 739 446 806 b 642 800 603 806 622 803 l 653 1000 b 576 1006 628 1004 603 1006 b 93 651 307 1006 147 844 l -7 651 l -7 525 l 78 525 b 79 461 78 503 78 482 l -7 461 z "},"–":{"ha":747,"x_min":0,"x_max":0,"o":"m 53 382 l 681 382 l 681 567 l 53 567 z "},"—":{"ha":858,"x_min":0,"x_max":0,"o":"m 53 382 l 804 382 l 804 567 l 53 567 z "},"š":{"ha":735,"x_min":0,"x_max":0,"o":"m 65 64 b 379 -8 200 -6 324 -12 b 679 293 565 1 679 128 b 392 597 679 451 546 540 b 281 697 335 617 286 642 b 379 808 276 753 308 804 b 582 767 410 810 472 811 l 607 958 b 360 1000 479 1003 411 1003 b 79 697 194 992 79 864 b 374 394 79 531 218 451 b 476 293 429 375 472 350 b 374 193 482 239 432 197 b 90 272 328 189 204 192 l 65 64 l 65 64 z m 426 1236 l 375 1178 l 324 1236 l 113 1236 l 310 1061 l 439 1061 l 639 1236 z "},"Š":{"ha":735,"x_min":0,"x_max":0,"o":"m 65 64 b 379 -8 200 -6 324 -12 b 679 293 565 1 679 128 b 392 597 679 451 546 540 b 281 697 335 617 286 642 b 379 808 276 753 308 804 b 582 767 410 810 472 811 l 607 958 b 360 1000 479 1003 411 1003 b 79 697 194 992 79 864 b 374 394 79 531 218 451 b 476 293 429 375 472 350 b 374 193 482 239 432 197 b 90 272 328 189 204 192 l 65 64 l 65 64 z m 429 1240 l 378 1182 l 326 1240 l 115 1240 l 313 1065 l 442 1065 l 642 1240 z "},"•":{"ha":407,"x_min":0,"x_max":0,"o":"m 197 649 b 197 307 -31 649 -31 307 b 197 649 425 307 431 649 z "},"¥":{"ha":901,"x_min":0,"x_max":0,"o":"m 551 0 l 551 225 l 729 225 l 729 365 l 551 365 l 551 428 l 729 428 l 729 568 l 628 568 l 899 993 l 656 993 l 453 651 l 250 993 l 8 993 l 278 568 l 163 568 l 163 428 l 354 428 l 354 365 l 163 365 l 163 225 l 354 225 l 354 0 z "},"ø":{"ha":1144,"x_min":0,"x_max":0,"o":"m 739 972 b 565 999 688 990 629 999 b 238 104 35 999 -76 367 l 122 -96 l 326 -96 l 393 18 b 565 -6 444 3 501 -6 b 894 888 1097 -6 1207 626 l 1010 1088 l 806 1088 z m 789 704 b 565 196 932 535 857 196 b 496 197 542 196 517 193 z m 343 286 b 565 797 199 456 275 797 b 636 794 590 797 615 800 z "},"’":{"ha":290,"x_min":0,"x_max":0,"o":"m 78 994 l 21 699 l 172 699 l 278 994 z "},"‘":{"ha":311,"x_min":0,"x_max":0,"o":"m 221 697 l 278 993 l 126 993 l 21 697 z "},"“":{"ha":547,"x_min":0,"x_max":0,"o":"m 213 697 l 278 993 l 126 993 l 21 697 z m 468 697 l 525 993 l 374 993 l 281 697 z "},"”":{"ha":547,"x_min":0,"x_max":0,"o":"m 328 992 l 263 696 l 414 696 l 519 992 z m 72 992 l 15 696 l 167 696 l 260 992 z "},"¯":{"ha":510,"x_min":0,"x_max":0,"o":"m 69 810 l 436 810 l 436 992 l 69 992 z "},"À":{"ha":907,"x_min":0,"x_max":0,"o":"m 422 1006 l 22 0 l 247 0 l 286 107 l 615 107 l 656 0 l 879 0 l 479 1006 z m 358 293 l 451 558 l 542 293 z m 224 1258 l 364 1063 l 556 1063 l 482 1258 z "},"Á":{"ha":907,"x_min":0,"x_max":0,"o":"m 422 1006 l 22 0 l 247 0 l 286 107 l 615 107 l 656 0 l 879 0 l 479 1006 z m 358 293 l 451 558 l 542 293 z m 411 1258 l 338 1063 l 529 1063 l 669 1258 z "},"Â":{"ha":907,"x_min":0,"x_max":0,"o":"m 422 1006 l 22 0 l 247 0 l 286 107 l 615 107 l 656 0 l 879 0 l 479 1006 z m 358 293 l 451 558 l 542 293 z m 710 1054 l 511 1249 l 383 1249 l 188 1054 l 397 1054 l 447 1119 l 499 1054 z "},"Ã":{"ha":907,"x_min":0,"x_max":0,"o":"m 422 1006 l 22 0 l 247 0 l 286 107 l 615 107 l 656 0 l 879 0 l 479 1006 z m 358 293 l 451 558 l 542 293 z m 333 1067 b 528 1056 379 1163 440 1058 b 688 1200 606 1053 663 1110 l 568 1254 b 371 1265 519 1158 460 1263 b 213 1119 293 1268 239 1208 z "},"Ä":{"ha":907,"x_min":0,"x_max":0,"o":"m 422 1006 l 22 0 l 247 0 l 286 107 l 615 107 l 656 0 l 879 0 l 479 1006 z m 358 293 l 451 558 l 542 293 z m 167 1147 b 279 1035 167 1083 218 1036 b 393 1147 343 1035 393 1083 b 279 1261 393 1213 343 1261 b 167 1147 218 1261 167 1213 z m 510 1147 b 622 1035 510 1083 563 1035 b 736 1147 686 1036 736 1083 b 622 1261 736 1213 686 1261 b 510 1147 563 1261 510 1213 z "},"à":{"ha":907,"x_min":0,"x_max":0,"o":"m 422 1006 l 22 0 l 247 0 l 286 107 l 615 107 l 656 0 l 879 0 l 479 1006 z m 358 293 l 451 558 l 542 293 z m 224 1258 l 364 1063 l 556 1063 l 482 1258 z "},"á":{"ha":907,"x_min":0,"x_max":0,"o":"m 422 1006 l 22 0 l 247 0 l 286 107 l 615 107 l 656 0 l 879 0 l 479 1006 z m 358 293 l 451 558 l 542 293 z m 411 1258 l 338 1063 l 529 1063 l 669 1258 z "},"â":{"ha":907,"x_min":0,"x_max":0,"o":"m 422 1006 l 22 0 l 247 0 l 286 107 l 615 107 l 656 0 l 879 0 l 479 1006 z m 358 293 l 451 558 l 542 293 z m 710 1054 l 511 1249 l 383 1249 l 188 1054 l 397 1054 l 447 1119 l 499 1054 z "},"ã":{"ha":907,"x_min":0,"x_max":0,"o":"m 422 1006 l 22 0 l 247 0 l 286 107 l 615 107 l 656 0 l 879 0 l 479 1006 z m 358 293 l 451 558 l 542 293 z m 333 1067 b 528 1056 379 1163 440 1058 b 688 1200 606 1053 663 1110 l 568 1254 b 371 1265 519 1158 460 1263 b 213 1119 293 1268 239 1208 z "},"ä":{"ha":907,"x_min":0,"x_max":0,"o":"m 422 1006 l 22 0 l 247 0 l 286 107 l 615 107 l 656 0 l 879 0 l 479 1006 z m 358 293 l 451 558 l 542 293 z m 167 1147 b 279 1035 167 1083 218 1036 b 393 1147 343 1035 393 1083 b 279 1261 393 1213 343 1261 b 167 1147 218 1261 167 1213 z m 510 1147 b 622 1035 510 1083 563 1035 b 736 1147 686 1036 736 1083 b 622 1261 736 1213 686 1261 b 510 1147 563 1261 510 1213 z "},"È":{"ha":700,"x_min":0,"x_max":0,"o":"m 625 0 l 625 0 l 625 199 l 310 199 l 310 397 l 571 397 l 571 596 l 310 596 l 310 794 l 608 794 l 608 993 l 111 993 l 111 0 l 625 0 z m 160 1219 l 293 1060 l 472 1060 l 404 1219 z "},"É":{"ha":700,"x_min":0,"x_max":0,"o":"m 329 1221 l 261 1061 l 440 1061 l 574 1221 z m 625 0 l 625 0 l 625 199 l 310 199 l 310 397 l 571 397 l 571 596 l 310 596 l 310 794 l 608 794 l 608 993 l 111 993 l 111 0 l 625 0 z "},"Ê":{"ha":700,"x_min":0,"x_max":0,"o":"m 625 0 l 625 0 l 625 199 l 310 199 l 310 397 l 571 397 l 571 596 l 310 596 l 310 794 l 608 794 l 608 993 l 111 993 l 111 0 l 625 0 z m 624 1068 l 428 1254 l 301 1254 l 108 1068 l 315 1068 l 364 1131 l 415 1068 z "},"Ë":{"ha":700,"x_min":0,"x_max":0,"o":"m 103 1157 b 213 1057 103 1099 153 1058 b 324 1157 274 1057 324 1099 b 213 1260 324 1215 274 1260 b 103 1157 153 1260 103 1215 z m 400 1157 b 511 1057 400 1099 451 1057 b 622 1157 574 1058 622 1099 b 511 1260 622 1215 574 1260 b 400 1157 451 1260 400 1215 z m 625 0 l 625 0 l 625 199 l 310 199 l 310 397 l 571 397 l 571 596 l 310 596 l 310 794 l 608 794 l 608 993 l 111 993 l 111 0 l 625 0 z "},"Ì":{"ha":422,"x_min":0,"x_max":0,"o":"m 310 0 l 310 993 l 111 993 l 111 0 l 310 0 l 310 0 z m 4 1251 l 133 1072 l 308 1072 l 240 1251 z "},"Í":{"ha":422,"x_min":0,"x_max":0,"o":"m 185 1251 l 117 1072 l 292 1072 l 421 1251 z m 310 0 l 310 993 l 111 993 l 111 0 l 310 0 l 310 0 z "},"Î":{"ha":422,"x_min":0,"x_max":0,"o":"m 310 0 l 310 993 l 111 993 l 111 0 l 310 0 l 310 0 z m 451 1069 l 265 1268 l 146 1268 l -37 1069 l 160 1069 l 206 1136 l 254 1069 z "},"Ï":{"ha":422,"x_min":0,"x_max":0,"o":"m -42 1179 b 65 1069 -42 1118 7 1071 b 174 1179 126 1069 174 1118 b 65 1290 174 1243 126 1290 b -42 1179 7 1290 -42 1243 z m 250 1179 b 357 1069 250 1118 300 1069 b 467 1179 418 1071 467 1118 b 357 1290 467 1243 418 1290 b 250 1179 300 1290 250 1243 z m 310 0 l 310 993 l 111 993 l 111 0 l 310 0 l 310 0 z "},"Ñ":{"ha":978,"x_min":0,"x_max":0,"o":"m 310 540 l 310 540 l 813 -21 l 865 -21 l 865 992 l 665 992 l 665 431 l 164 1014 l 111 1014 l 111 0 l 310 0 z m 364 1078 b 558 1067 410 1174 471 1069 b 718 1211 636 1064 693 1121 l 599 1265 b 401 1276 550 1169 490 1274 b 243 1131 324 1279 269 1219 z "},"Ð":{"ha":978,"x_min":0,"x_max":0,"o":"m 4 396 l 111 396 l 111 0 l 407 0 b 407 993 1068 0 1068 993 l 111 993 l 111 581 l 4 581 z m 407 794 b 407 199 793 794 793 199 l 310 199 l 310 396 l 488 396 l 488 581 l 310 581 l 310 794 z "},"è":{"ha":700,"x_min":0,"x_max":0,"o":"m 625 0 l 625 0 l 625 199 l 310 199 l 310 397 l 571 397 l 571 596 l 310 596 l 310 794 l 608 794 l 608 993 l 111 993 l 111 0 l 625 0 z m 160 1219 l 293 1060 l 472 1060 l 404 1219 z "},"é":{"ha":700,"x_min":0,"x_max":0,"o":"m 329 1221 l 261 1061 l 440 1061 l 574 1221 z m 625 0 l 625 0 l 625 199 l 310 199 l 310 397 l 571 397 l 571 596 l 310 596 l 310 794 l 608 794 l 608 993 l 111 993 l 111 0 l 625 0 z "},"ê":{"ha":700,"x_min":0,"x_max":0,"o":"m 625 0 l 625 0 l 625 199 l 310 199 l 310 397 l 571 397 l 571 596 l 310 596 l 310 794 l 608 794 l 608 993 l 111 993 l 111 0 l 625 0 z m 624 1068 l 428 1254 l 301 1254 l 108 1068 l 315 1068 l 364 1131 l 415 1068 z "},"ë":{"ha":700,"x_min":0,"x_max":0,"o":"m 103 1157 b 213 1057 103 1099 153 1058 b 324 1157 274 1057 324 1099 b 213 1260 324 1215 274 1260 b 103 1157 153 1260 103 1215 z m 400 1157 b 511 1057 400 1099 451 1057 b 622 1157 574 1058 622 1099 b 511 1260 622 1215 574 1260 b 400 1157 451 1260 400 1215 z m 625 0 l 625 0 l 625 199 l 310 199 l 310 397 l 571 397 l 571 596 l 310 596 l 310 794 l 608 794 l 608 993 l 111 993 l 111 0 l 625 0 z "},"ì":{"ha":422,"x_min":0,"x_max":0,"o":"m 310 0 l 310 993 l 111 993 l 111 0 l 310 0 l 310 0 z m 4 1251 l 133 1072 l 308 1072 l 240 1251 z "},"í":{"ha":422,"x_min":0,"x_max":0,"o":"m 185 1251 l 117 1072 l 292 1072 l 421 1251 z m 310 0 l 310 993 l 111 993 l 111 0 l 310 0 l 310 0 z "},"î":{"ha":422,"x_min":0,"x_max":0,"o":"m 310 0 l 310 993 l 111 993 l 111 0 l 310 0 l 310 0 z m 451 1069 l 265 1268 l 146 1268 l -37 1069 l 160 1069 l 206 1136 l 254 1069 z "},"ï":{"ha":422,"x_min":0,"x_max":0,"o":"m -42 1179 b 65 1069 -42 1118 7 1071 b 174 1179 126 1069 174 1118 b 65 1290 174 1243 126 1290 b -42 1179 7 1290 -42 1243 z m 250 1179 b 357 1069 250 1118 300 1069 b 467 1179 418 1071 467 1118 b 357 1290 467 1243 418 1290 b 250 1179 300 1290 250 1243 z m 310 0 l 310 993 l 111 993 l 111 0 l 310 0 l 310 0 z "},"ð":{"ha":978,"x_min":0,"x_max":0,"o":"m 4 396 l 111 396 l 111 0 l 407 0 b 407 993 1068 0 1068 993 l 111 993 l 111 581 l 4 581 z m 407 794 b 407 199 793 794 793 199 l 310 199 l 310 396 l 488 396 l 488 581 l 310 581 l 310 794 z "},"ñ":{"ha":978,"x_min":0,"x_max":0,"o":"m 310 540 l 310 540 l 813 -21 l 865 -21 l 865 992 l 665 992 l 665 431 l 164 1014 l 111 1014 l 111 0 l 310 0 z m 364 1078 b 558 1067 410 1174 471 1069 b 718 1211 636 1064 693 1121 l 599 1265 b 401 1276 550 1169 490 1274 b 243 1131 324 1279 269 1219 z "},"Ò":{"ha":1176,"x_min":0,"x_max":0,"o":"m 589 -14 b 589 1010 -94 -14 -94 1010 b 589 -14 1272 1010 1272 -14 l 589 -14 z m 589 192 b 589 806 986 192 986 806 b 589 192 192 806 192 192 l 589 192 z m 381 1285 l 521 1089 l 713 1089 l 639 1285 z "},"Ó":{"ha":1176,"x_min":0,"x_max":0,"o":"m 589 -14 l 589 -14 b 589 1010 1272 -14 1272 1010 b 589 -14 -94 1010 -94 -14 z m 589 192 l 589 192 b 589 806 192 192 192 806 b 589 192 986 806 986 192 z m 575 1289 l 501 1093 l 689 1093 l 829 1289 z "},"Ô":{"ha":1176,"x_min":0,"x_max":0,"o":"m 589 -14 b 589 1010 -94 -14 -94 1010 b 589 -14 1272 1010 1272 -14 l 589 -14 z m 589 192 b 589 806 986 192 986 806 b 589 192 192 806 192 192 l 589 192 z m 868 1083 l 661 1274 l 528 1274 l 324 1083 l 543 1083 l 594 1147 l 649 1083 z "},"Õ":{"ha":1176,"x_min":0,"x_max":0,"o":"m 589 -14 l 589 -14 b 589 1010 1272 -14 1272 1010 b 589 -14 -94 1010 -94 -14 z m 589 192 l 589 192 b 589 806 192 192 192 806 b 589 192 986 806 986 192 z m 478 1090 b 672 1079 524 1186 585 1082 b 832 1224 750 1076 807 1133 l 713 1278 b 515 1289 664 1182 604 1286 b 357 1143 438 1292 383 1232 z "},"Ö":{"ha":1176,"x_min":0,"x_max":0,"o":"m 589 -14 l 589 -14 b 589 1010 1272 -14 1272 1010 b 589 -14 -94 1010 -94 -14 z m 589 192 l 589 192 b 589 806 192 192 192 806 b 589 192 986 806 986 192 z m 300 1185 b 418 1076 300 1124 354 1078 b 538 1185 485 1076 538 1124 b 418 1293 538 1247 485 1293 b 300 1185 354 1293 300 1247 z m 660 1185 b 778 1076 660 1124 715 1076 b 896 1185 844 1078 896 1124 b 778 1293 896 1247 844 1293 b 660 1185 715 1293 660 1247 z "},"ò":{"ha":1176,"x_min":0,"x_max":0,"o":"m 589 -14 b 589 1010 -94 -14 -94 1010 b 589 -14 1272 1010 1272 -14 l 589 -14 z m 589 192 b 589 806 986 192 986 806 b 589 192 192 806 192 192 l 589 192 z m 381 1285 l 521 1089 l 713 1089 l 639 1285 z "},"ó":{"ha":1176,"x_min":0,"x_max":0,"o":"m 589 -14 l 589 -14 b 589 1010 1272 -14 1272 1010 b 589 -14 -94 1010 -94 -14 z m 589 192 l 589 192 b 589 806 192 192 192 806 b 589 192 986 806 986 192 z m 575 1289 l 501 1093 l 689 1093 l 829 1289 z "},"ô":{"ha":1176,"x_min":0,"x_max":0,"o":"m 589 -14 b 589 1010 -94 -14 -94 1010 b 589 -14 1272 1010 1272 -14 l 589 -14 z m 589 192 b 589 806 986 192 986 806 b 589 192 192 806 192 192 l 589 192 z m 868 1083 l 661 1274 l 528 1274 l 324 1083 l 543 1083 l 594 1147 l 649 1083 z "},"õ":{"ha":1176,"x_min":0,"x_max":0,"o":"m 589 -14 l 589 -14 b 589 1010 1272 -14 1272 1010 b 589 -14 -94 1010 -94 -14 z m 589 192 l 589 192 b 589 806 192 192 192 806 b 589 192 986 806 986 192 z m 478 1090 b 672 1079 524 1186 585 1082 b 832 1224 750 1076 807 1133 l 713 1278 b 515 1289 664 1182 604 1286 b 357 1143 438 1292 383 1232 z "},"ö":{"ha":1176,"x_min":0,"x_max":0,"o":"m 589 -14 l 589 -14 b 589 1010 1272 -14 1272 1010 b 589 -14 -94 1010 -94 -14 z m 589 192 l 589 192 b 589 806 192 192 192 806 b 589 192 986 806 986 192 z m 300 1185 b 418 1076 300 1124 354 1078 b 538 1185 485 1076 538 1124 b 418 1293 538 1247 485 1293 b 300 1185 354 1293 300 1247 z m 660 1185 b 778 1076 660 1124 715 1076 b 896 1185 844 1078 896 1124 b 778 1293 896 1247 844 1293 b 660 1185 715 1293 660 1247 z "},"Ý":{"ha":901,"x_min":0,"x_max":0,"o":"m 354 0 l 354 0 l 551 0 l 551 447 l 899 993 l 656 993 l 453 651 l 250 993 l 8 993 l 354 447 z m 415 1268 l 342 1072 l 529 1072 l 669 1268 z "},"ý":{"ha":901,"x_min":0,"x_max":0,"o":"m 354 0 l 354 0 l 551 0 l 551 447 l 899 993 l 656 993 l 453 651 l 250 993 l 8 993 l 354 447 z m 415 1268 l 342 1072 l 529 1072 l 669 1268 z "},"Ù":{"ha":932,"x_min":0,"x_max":0,"o":"m 824 346 l 824 993 l 626 993 l 626 347 b 304 347 626 139 304 139 l 304 993 l 106 993 l 106 346 b 824 346 106 -126 824 -126 l 824 346 z m 271 1263 l 397 1069 l 569 1069 l 503 1263 z "},"Ú":{"ha":932,"x_min":0,"x_max":0,"o":"m 435 1263 l 368 1069 l 540 1069 l 667 1263 z m 824 346 l 824 993 l 626 993 l 626 347 b 304 347 626 139 304 139 l 304 993 l 106 993 l 106 346 b 824 346 106 -126 824 -126 l 824 346 z "},"Ü":{"ha":932,"x_min":0,"x_max":0,"o":"m 824 346 l 824 993 l 626 993 l 626 347 b 304 347 626 139 304 139 l 304 993 l 106 993 l 106 346 b 824 346 106 -126 824 -126 l 824 346 z m 199 1169 b 306 1067 199 1111 247 1068 b 413 1169 365 1067 413 1111 b 306 1275 413 1231 365 1275 b 199 1169 247 1275 199 1231 z m 524 1169 b 631 1067 524 1111 574 1067 b 738 1169 690 1068 738 1111 b 631 1275 738 1231 690 1275 b 524 1169 574 1275 524 1231 z "},"Û":{"ha":932,"x_min":0,"x_max":0,"o":"m 824 346 l 824 993 l 626 993 l 626 347 b 304 347 626 139 304 139 l 304 993 l 106 993 l 106 346 b 824 346 106 -126 824 -126 l 824 346 z m 725 1085 l 526 1279 l 399 1279 l 203 1085 l 413 1085 l 463 1150 l 514 1085 z "},"ù":{"ha":932,"x_min":0,"x_max":0,"o":"m 824 346 l 824 993 l 626 993 l 626 347 b 304 347 626 139 304 139 l 304 993 l 106 993 l 106 346 b 824 346 106 -126 824 -126 l 824 346 z m 271 1263 l 397 1069 l 569 1069 l 503 1263 z "},"ú":{"ha":932,"x_min":0,"x_max":0,"o":"m 435 1263 l 368 1069 l 540 1069 l 667 1263 z m 824 346 l 824 993 l 626 993 l 626 347 b 304 347 626 139 304 139 l 304 993 l 106 993 l 106 346 b 824 346 106 -126 824 -126 l 824 346 z "},"û":{"ha":932,"x_min":0,"x_max":0,"o":"m 824 346 l 824 993 l 626 993 l 626 347 b 304 347 626 139 304 139 l 304 993 l 106 993 l 106 346 b 824 346 106 -126 824 -126 l 824 346 z m 725 1085 l 526 1279 l 399 1279 l 203 1085 l 413 1085 l 463 1150 l 514 1085 z "},"ü":{"ha":932,"x_min":0,"x_max":0,"o":"m 824 346 l 824 993 l 626 993 l 626 347 b 304 347 626 139 304 139 l 304 993 l 106 993 l 106 346 b 824 346 106 -126 824 -126 l 824 346 z m 199 1169 b 306 1067 199 1111 247 1068 b 413 1169 365 1067 413 1111 b 306 1275 413 1231 365 1275 b 199 1169 247 1275 199 1231 z m 524 1169 b 631 1067 524 1111 574 1067 b 738 1169 690 1068 738 1111 b 631 1275 738 1231 690 1275 b 524 1169 574 1275 524 1231 z "},"Ā":{"ha":907,"x_min":0,"x_max":0,"o":"m 421 1013 l 22 0 l 247 0 l 286 107 l 615 107 l 656 0 l 879 0 l 481 1013 z m 358 293 l 451 567 l 542 293 z m 267 1067 l 633 1067 l 633 1249 l 267 1249 z "},"Ă":{"ha":907,"x_min":0,"x_max":0,"o":"m 421 1013 l 22 0 l 247 0 l 286 107 l 615 107 l 656 0 l 879 0 l 481 1013 z m 358 293 l 451 567 l 542 293 z m 451 1204 b 388 1263 417 1204 388 1218 l 257 1263 b 451 1065 244 1094 383 1065 b 646 1263 524 1065 658 1094 l 515 1263 b 451 1204 515 1218 486 1204 z "},"Ą":{"ha":907,"x_min":0,"x_max":0,"o":"m 22 0 l 247 0 l 286 107 l 615 107 l 656 0 l 700 0 b 613 -279 626 -69 561 -183 b 885 -333 660 -371 789 -368 l 872 -199 b 775 -196 842 -214 789 -224 b 879 0 747 -143 815 -53 l 461 1029 l 440 1029 z m 358 293 l 451 551 l 542 293 z "},"ā":{"ha":907,"x_min":0,"x_max":0,"o":"m 421 1013 l 22 0 l 247 0 l 286 107 l 615 107 l 656 0 l 879 0 l 481 1013 z m 358 293 l 451 567 l 542 293 z m 267 1067 l 633 1067 l 633 1249 l 267 1249 z "},"ă":{"ha":907,"x_min":0,"x_max":0,"o":"m 421 1013 l 22 0 l 247 0 l 286 107 l 615 107 l 656 0 l 879 0 l 481 1013 z m 358 293 l 451 567 l 542 293 z m 451 1204 b 388 1263 417 1204 388 1218 l 257 1263 b 451 1065 244 1094 383 1065 b 646 1263 524 1065 658 1094 l 515 1263 b 451 1204 515 1218 486 1204 z "},"ą":{"ha":907,"x_min":0,"x_max":0,"o":"m 22 0 l 247 0 l 286 107 l 615 107 l 656 0 l 700 0 b 613 -279 626 -69 561 -183 b 885 -333 660 -371 789 -368 l 872 -199 b 775 -196 842 -214 789 -224 b 879 0 747 -143 815 -53 l 461 1029 l 440 1029 z m 358 293 l 451 551 l 542 293 z "},"Ć":{"ha":836,"x_min":0,"x_max":0,"o":"m 743 763 l 743 763 l 767 967 b 571 1006 707 993 640 1006 b 571 -3 -101 1006 -103 -3 b 789 39 640 -3 728 14 l 763 244 b 571 200 725 225 657 200 b 571 806 178 200 178 806 b 743 763 657 806 706 782 z m 483 1272 l 415 1075 l 589 1075 l 719 1272 z "},"Ĉ":{"ha":836,"x_min":0,"x_max":0,"o":"m 743 763 b 571 806 706 782 657 806 b 571 200 178 806 178 200 b 763 244 657 200 725 225 l 789 39 b 571 -3 728 14 640 -3 b 571 1006 -103 -3 -101 1006 b 767 967 640 1006 707 993 l 743 763 l 743 763 z m 771 1071 l 572 1265 l 444 1265 l 249 1071 l 458 1071 l 508 1136 l 560 1071 z "},"Ċ":{"ha":836,"x_min":0,"x_max":0,"o":"m 743 763 l 743 763 l 767 967 b 571 1006 707 993 640 1006 b 571 -3 -101 1006 -103 -3 b 789 39 640 -3 728 14 l 763 244 b 571 200 725 225 657 200 b 571 806 178 200 178 806 b 743 763 657 806 706 782 z m 542 1290 b 542 1081 389 1290 389 1081 b 542 1290 692 1081 696 1290 z "},"Č":{"ha":836,"x_min":0,"x_max":0,"o":"m 743 763 l 743 763 l 767 967 b 571 1006 707 993 640 1006 b 571 -3 -101 1006 -103 -3 b 789 39 640 -3 728 14 l 763 244 b 571 200 725 225 657 200 b 571 806 178 200 178 806 b 743 763 657 806 706 782 z m 576 1267 l 525 1201 l 475 1267 l 265 1267 l 461 1072 l 589 1072 l 788 1267 z "},"Ď":{"ha":978,"x_min":0,"x_max":0,"o":"m 407 993 l 111 993 l 111 0 l 407 0 b 407 993 1068 0 1068 993 l 407 993 z m 407 794 b 407 199 793 794 793 199 l 310 199 l 310 794 l 407 794 l 407 794 z m 468 1261 l 417 1196 l 367 1261 l 157 1261 l 353 1067 l 481 1067 l 679 1261 z "},"Đ":{"ha":978,"x_min":0,"x_max":0,"o":"m 4 396 l 111 396 l 111 0 l 407 0 b 407 993 1068 0 1068 993 l 111 993 l 111 581 l 4 581 z m 407 794 b 407 199 793 794 793 199 l 310 199 l 310 396 l 488 396 l 488 581 l 310 581 l 310 794 z "},"ć":{"ha":836,"x_min":0,"x_max":0,"o":"m 743 763 l 743 763 l 767 967 b 571 1006 707 993 640 1006 b 571 -3 -101 1006 -103 -3 b 789 39 640 -3 728 14 l 763 244 b 571 200 725 225 657 200 b 571 806 178 200 178 806 b 743 763 657 806 706 782 z m 483 1272 l 415 1075 l 589 1075 l 719 1272 z "},"ĉ":{"ha":836,"x_min":0,"x_max":0,"o":"m 743 763 b 571 806 706 782 657 806 b 571 200 178 806 178 200 b 763 244 657 200 725 225 l 789 39 b 571 -3 728 14 640 -3 b 571 1006 -103 -3 -101 1006 b 767 967 640 1006 707 993 l 743 763 l 743 763 z m 771 1071 l 572 1265 l 444 1265 l 249 1071 l 458 1071 l 508 1136 l 560 1071 z "},"ċ":{"ha":836,"x_min":0,"x_max":0,"o":"m 743 763 l 743 763 l 767 967 b 571 1006 707 993 640 1006 b 571 -3 -101 1006 -103 -3 b 789 39 640 -3 728 14 l 763 244 b 571 200 725 225 657 200 b 571 806 178 200 178 806 b 743 763 657 806 706 782 z m 542 1290 b 542 1081 389 1290 389 1081 b 542 1290 692 1081 696 1290 z "},"č":{"ha":836,"x_min":0,"x_max":0,"o":"m 743 763 l 743 763 l 767 967 b 571 1006 707 993 640 1006 b 571 -3 -101 1006 -103 -3 b 789 39 640 -3 728 14 l 763 244 b 571 200 725 225 657 200 b 571 806 178 200 178 806 b 743 763 657 806 706 782 z m 576 1267 l 525 1201 l 475 1267 l 265 1267 l 461 1072 l 589 1072 l 788 1267 z "},"ď":{"ha":978,"x_min":0,"x_max":0,"o":"m 407 993 l 111 993 l 111 0 l 407 0 b 407 993 1068 0 1068 993 l 407 993 z m 407 794 b 407 199 793 794 793 199 l 310 199 l 310 794 l 407 794 l 407 794 z m 468 1261 l 417 1196 l 367 1261 l 157 1261 l 353 1067 l 481 1067 l 679 1261 z "},"đ":{"ha":978,"x_min":0,"x_max":0,"o":"m 4 396 l 111 396 l 111 0 l 407 0 b 407 993 1068 0 1068 993 l 111 993 l 111 581 l 4 581 z m 407 794 b 407 199 793 794 793 199 l 310 199 l 310 396 l 488 396 l 488 581 l 310 581 l 310 794 z "},"Ē":{"ha":700,"x_min":0,"x_max":0,"o":"m 625 0 l 625 0 l 625 199 l 310 199 l 310 397 l 571 397 l 571 596 l 310 596 l 310 794 l 608 794 l 608 993 l 111 993 l 111 0 l 625 0 z m 188 1076 l 551 1076 l 551 1244 l 188 1244 z "},"Ĕ":{"ha":700,"x_min":0,"x_max":0,"o":"m 625 0 l 625 0 l 625 199 l 310 199 l 310 397 l 571 397 l 571 596 l 310 596 l 310 794 l 608 794 l 608 993 l 111 993 l 111 0 l 625 0 z m 367 1200 b 303 1258 332 1200 303 1214 l 172 1258 b 367 1061 160 1090 299 1061 b 561 1258 439 1061 574 1090 l 431 1258 b 367 1200 431 1214 401 1200 z "},"Ė":{"ha":700,"x_min":0,"x_max":0,"o":"m 625 0 l 625 0 l 625 199 l 310 199 l 310 397 l 571 397 l 571 596 l 310 596 l 310 794 l 608 794 l 608 993 l 111 993 l 111 0 l 625 0 z m 365 1267 b 365 1064 214 1267 214 1064 b 365 1267 514 1064 518 1267 z "},"Ę":{"ha":700,"x_min":0,"x_max":0,"o":"m 625 199 l 310 199 l 310 397 l 571 397 l 571 596 l 310 596 l 310 794 l 608 794 l 608 993 l 111 993 l 111 0 l 460 0 b 368 -262 392 -65 321 -176 b 636 -315 415 -351 542 -349 l 624 -185 b 528 -182 593 -200 542 -208 b 625 0 504 -135 543 -49 z "},"Ě":{"ha":700,"x_min":0,"x_max":0,"o":"m 625 0 l 625 0 l 625 199 l 310 199 l 310 397 l 571 397 l 571 596 l 310 596 l 310 794 l 608 794 l 608 993 l 111 993 l 111 0 l 625 0 z m 425 1236 l 375 1176 l 326 1236 l 121 1236 l 313 1058 l 438 1058 l 631 1236 z "},"ē":{"ha":700,"x_min":0,"x_max":0,"o":"m 625 0 l 625 0 l 625 199 l 310 199 l 310 397 l 571 397 l 571 596 l 310 596 l 310 794 l 608 794 l 608 993 l 111 993 l 111 0 l 625 0 z m 188 1076 l 551 1076 l 551 1244 l 188 1244 z "},"ĕ":{"ha":700,"x_min":0,"x_max":0,"o":"m 625 0 l 625 0 l 625 199 l 310 199 l 310 397 l 571 397 l 571 596 l 310 596 l 310 794 l 608 794 l 608 993 l 111 993 l 111 0 l 625 0 z m 367 1200 b 303 1258 332 1200 303 1214 l 172 1258 b 367 1061 160 1090 299 1061 b 561 1258 439 1061 574 1090 l 431 1258 b 367 1200 431 1214 401 1200 z "},"ė":{"ha":700,"x_min":0,"x_max":0,"o":"m 625 0 l 625 0 l 625 199 l 310 199 l 310 397 l 571 397 l 571 596 l 310 596 l 310 794 l 608 794 l 608 993 l 111 993 l 111 0 l 625 0 z m 365 1267 b 365 1064 214 1267 214 1064 b 365 1267 514 1064 518 1267 z "},"ę":{"ha":700,"x_min":0,"x_max":0,"o":"m 625 199 l 310 199 l 310 397 l 571 397 l 571 596 l 310 596 l 310 794 l 608 794 l 608 993 l 111 993 l 111 0 l 460 0 b 368 -262 392 -65 321 -176 b 636 -315 415 -351 542 -349 l 624 -185 b 528 -182 593 -200 542 -208 b 625 0 504 -135 543 -49 z "},"ě":{"ha":700,"x_min":0,"x_max":0,"o":"m 625 0 l 625 0 l 625 199 l 310 199 l 310 397 l 571 397 l 571 596 l 310 596 l 310 794 l 608 794 l 608 993 l 111 993 l 111 0 l 625 0 z m 425 1236 l 375 1176 l 326 1236 l 121 1236 l 313 1058 l 438 1058 l 631 1236 z "},"Ĝ":{"ha":935,"x_min":0,"x_max":0,"o":"m 828 61 b 571 -6 751 18 665 -6 b 571 1001 -85 -6 -118 976 b 803 965 689 1006 785 971 l 779 764 b 571 800 740 781 676 803 b 571 193 169 786 188 193 b 626 199 589 193 608 196 l 626 497 l 828 497 l 828 61 l 828 61 z m 789 1072 l 590 1267 l 463 1267 l 267 1072 l 476 1072 l 526 1138 l 578 1072 z "},"Ğ":{"ha":935,"x_min":0,"x_max":0,"o":"m 828 61 l 828 61 l 828 497 l 626 497 l 626 199 b 571 193 608 196 589 193 b 571 800 188 193 169 786 b 779 764 676 803 740 781 l 803 965 b 571 1001 785 971 689 1006 b 571 -6 -118 976 -85 -6 b 828 61 665 -6 751 18 z m 525 1201 b 461 1260 490 1201 461 1215 l 331 1260 b 525 1063 318 1092 457 1063 b 719 1260 597 1063 732 1092 l 589 1260 b 525 1201 589 1215 560 1201 z "},"Ġ":{"ha":935,"x_min":0,"x_max":0,"o":"m 828 61 l 828 61 l 828 497 l 626 497 l 626 199 b 571 193 608 196 589 193 b 571 800 188 193 169 786 b 779 764 676 803 740 781 l 803 965 b 571 1001 785 971 689 1006 b 571 -6 -118 976 -85 -6 b 828 61 665 -6 751 18 z m 543 1276 b 543 1071 389 1276 389 1071 b 543 1276 694 1071 699 1276 z "},"Ģ":{"ha":935,"x_min":0,"x_max":0,"o":"m 556 -361 l 653 -78 l 447 -78 l 394 -361 z m 828 61 l 828 61 l 828 497 l 626 497 l 626 199 b 571 193 608 196 589 193 b 571 800 188 193 169 786 b 779 764 676 803 740 781 l 803 965 b 571 1001 785 971 689 1006 b 571 -6 -118 976 -85 -6 b 828 61 665 -6 751 18 z "},"ĝ":{"ha":935,"x_min":0,"x_max":0,"o":"m 828 61 b 571 -6 751 18 665 -6 b 571 1001 -85 -6 -118 976 b 803 965 689 1006 785 971 l 779 764 b 571 800 740 781 676 803 b 571 193 169 786 188 193 b 626 199 589 193 608 196 l 626 497 l 828 497 l 828 61 l 828 61 z m 789 1072 l 590 1267 l 463 1267 l 267 1072 l 476 1072 l 526 1138 l 578 1072 z "},"ğ":{"ha":935,"x_min":0,"x_max":0,"o":"m 828 61 l 828 61 l 828 497 l 626 497 l 626 199 b 571 193 608 196 589 193 b 571 800 188 193 169 786 b 779 764 676 803 740 781 l 803 965 b 571 1001 785 971 689 1006 b 571 -6 -118 976 -85 -6 b 828 61 665 -6 751 18 z m 525 1201 b 461 1260 490 1201 461 1215 l 331 1260 b 525 1063 318 1092 457 1063 b 719 1260 597 1063 732 1092 l 589 1260 b 525 1201 589 1215 560 1201 z "},"ġ":{"ha":935,"x_min":0,"x_max":0,"o":"m 828 61 l 828 61 l 828 497 l 626 497 l 626 199 b 571 193 608 196 589 193 b 571 800 188 193 169 786 b 779 764 676 803 740 781 l 803 965 b 571 1001 785 971 689 1006 b 571 -6 -118 976 -85 -6 b 828 61 665 -6 751 18 z m 543 1276 b 543 1071 389 1276 389 1071 b 543 1276 694 1071 699 1276 z "},"ģ":{"ha":935,"x_min":0,"x_max":0,"o":"m 556 -361 l 653 -78 l 447 -78 l 394 -361 z m 828 61 l 828 61 l 828 497 l 626 497 l 626 199 b 571 193 608 196 589 193 b 571 800 188 193 169 786 b 779 764 676 803 740 781 l 803 965 b 571 1001 785 971 689 1006 b 571 -6 -118 976 -85 -6 b 828 61 665 -6 751 18 z "},"Ĥ":{"ha":918,"x_min":0,"x_max":0,"o":"m 806 0 l 806 993 l 607 993 l 607 596 l 310 596 l 310 993 l 111 993 l 111 0 l 310 0 l 310 397 l 607 397 l 607 0 l 806 0 l 806 0 z m 718 1072 l 519 1267 l 392 1267 l 196 1072 l 406 1072 l 456 1138 l 507 1072 z "},"Ħ":{"ha":918,"x_min":0,"x_max":0,"o":"m 24 726 l 111 726 l 111 0 l 310 0 l 310 397 l 607 397 l 607 0 l 806 0 l 806 726 l 893 726 l 893 874 l 806 874 l 806 993 l 607 993 l 607 874 l 310 874 l 310 993 l 111 993 l 111 874 l 24 874 z m 310 596 l 310 726 l 607 726 l 607 596 z "},"ĥ":{"ha":918,"x_min":0,"x_max":0,"o":"m 806 0 l 806 993 l 607 993 l 607 596 l 310 596 l 310 993 l 111 993 l 111 0 l 310 0 l 310 397 l 607 397 l 607 0 l 806 0 l 806 0 z m 718 1072 l 519 1267 l 392 1267 l 196 1072 l 406 1072 l 456 1138 l 507 1072 z "},"ħ":{"ha":918,"x_min":0,"x_max":0,"o":"m 24 726 l 111 726 l 111 0 l 310 0 l 310 397 l 607 397 l 607 0 l 806 0 l 806 726 l 893 726 l 893 874 l 806 874 l 806 993 l 607 993 l 607 874 l 310 874 l 310 993 l 111 993 l 111 874 l 24 874 z m 310 596 l 310 726 l 607 726 l 607 596 z "},"Ĩ":{"ha":422,"x_min":0,"x_max":0,"o":"m 310 0 l 310 993 l 111 993 l 111 0 l 310 0 l 310 0 z m 99 1079 b 276 1069 140 1164 196 1072 b 422 1196 347 1067 399 1117 l 313 1244 b 132 1254 268 1160 214 1251 b -12 1126 61 1256 11 1204 z "},"Ī":{"ha":422,"x_min":0,"x_max":0,"o":"m 310 0 l 310 993 l 111 993 l 111 0 l 310 0 l 310 0 z m 35 1082 l 393 1082 l 393 1253 l 35 1253 z "},"Ĭ":{"ha":422,"x_min":0,"x_max":0,"o":"m 310 0 l 310 993 l 111 993 l 111 0 l 310 0 l 310 0 z m 213 1206 b 149 1264 178 1206 149 1219 l 18 1264 b 213 1067 6 1096 144 1067 b 407 1264 285 1067 419 1096 l 276 1264 b 213 1206 276 1219 247 1206 z "},"Į":{"ha":422,"x_min":0,"x_max":0,"o":"m 310 0 l 310 993 l 111 993 l 111 0 l 156 0 b 67 -271 83 -69 17 -179 b 339 -325 114 -362 243 -360 l 326 -190 b 229 -187 296 -206 243 -215 b 310 0 204 -139 260 -54 z "},"İ":{"ha":422,"x_min":0,"x_max":0,"o":"m 310 0 l 310 993 l 111 993 l 111 0 l 310 0 l 310 0 z m 214 1289 b 214 1071 64 1289 64 1071 b 214 1289 363 1071 367 1289 z "},"Ĳ":{"ha":1068,"x_min":0,"x_max":0,"o":"m 310 0 l 310 993 l 111 993 l 111 0 l 310 0 l 310 0 z m 467 0 l 663 0 b 958 299 858 0 958 96 l 958 993 l 757 993 l 757 299 b 657 199 757 243 714 199 l 467 199 l 467 0 l 467 0 z "},"ĳ":{"ha":1068,"x_min":0,"x_max":0,"o":"m 310 0 l 310 993 l 111 993 l 111 0 l 310 0 l 310 0 z m 467 0 l 663 0 b 958 299 858 0 958 96 l 958 993 l 757 993 l 757 299 b 657 199 757 243 714 199 l 467 199 l 467 0 l 467 0 z "},"Ĵ":{"ha":646,"x_min":0,"x_max":0,"o":"m 44 0 l 240 0 b 536 299 436 0 536 96 l 536 993 l 335 993 l 335 299 b 235 199 335 243 292 199 l 44 199 l 44 0 l 44 0 z m 678 1068 l 479 1263 l 351 1263 l 156 1068 l 365 1068 l 415 1133 l 467 1068 z "},"ĵ":{"ha":646,"x_min":0,"x_max":0,"o":"m 44 0 l 240 0 b 536 299 436 0 536 96 l 536 993 l 335 993 l 335 299 b 235 199 335 243 292 199 l 44 199 l 44 0 l 44 0 z m 678 1068 l 479 1263 l 351 1263 l 156 1068 l 365 1068 l 415 1133 l 467 1068 z "},"ĩ":{"ha":422,"x_min":0,"x_max":0,"o":"m 310 0 l 310 993 l 111 993 l 111 0 l 310 0 l 310 0 z m 99 1079 b 276 1069 140 1164 196 1072 b 422 1196 347 1067 399 1117 l 313 1244 b 132 1254 268 1160 214 1251 b -12 1126 61 1256 11 1204 z "},"ī":{"ha":422,"x_min":0,"x_max":0,"o":"m 310 0 l 310 993 l 111 993 l 111 0 l 310 0 l 310 0 z m 35 1082 l 393 1082 l 393 1253 l 35 1253 z "},"ĭ":{"ha":422,"x_min":0,"x_max":0,"o":"m 310 0 l 310 993 l 111 993 l 111 0 l 310 0 l 310 0 z m 213 1206 b 149 1264 178 1206 149 1219 l 18 1264 b 213 1067 6 1096 144 1067 b 407 1264 285 1067 419 1096 l 276 1264 b 213 1206 276 1219 247 1206 z "},"į":{"ha":422,"x_min":0,"x_max":0,"o":"m 310 0 l 310 993 l 111 993 l 111 0 l 156 0 b 67 -271 83 -69 17 -179 b 339 -325 114 -362 243 -360 l 326 -190 b 229 -187 296 -206 243 -215 b 310 0 204 -139 260 -54 z "},"Ķ":{"ha":839,"x_min":0,"x_max":0,"o":"m 286 -353 l 339 -69 l 544 -69 l 447 -353 z m 111 0 l 310 0 b 310 389 310 128 310 261 l 574 0 l 819 0 l 469 503 l 792 993 l 560 993 l 310 597 b 310 993 310 729 310 861 l 111 993 l 111 0 l 111 0 z "},"ĸ":{"ha":839,"x_min":0,"x_max":0,"o":"m 111 0 l 310 0 b 310 389 310 128 310 261 l 574 0 l 819 0 l 469 503 l 792 993 l 560 993 l 310 597 b 310 993 310 729 310 861 l 111 993 l 111 0 l 111 0 z "},"ķ":{"ha":839,"x_min":0,"x_max":0,"o":"m 286 -353 l 339 -69 l 544 -69 l 447 -353 z m 111 0 l 310 0 b 310 389 310 128 310 261 l 574 0 l 819 0 l 469 503 l 792 993 l 560 993 l 310 597 b 310 993 310 729 310 861 l 111 993 l 111 0 l 111 0 z "},"Ļ":{"ha":685,"x_min":0,"x_max":0,"o":"m 381 -343 l 476 -79 l 274 -79 l 221 -343 z m 111 993 l 111 993 l 111 0 l 625 0 l 625 199 l 310 199 l 310 993 z "},"Ņ":{"ha":978,"x_min":0,"x_max":0,"o":"m 544 -339 l 640 -75 l 438 -75 l 385 -339 z m 310 540 l 310 540 l 813 -21 l 865 -21 l 865 992 l 665 992 l 665 431 l 164 1014 l 111 1014 l 111 0 l 310 0 z "},"Ŗ":{"ha":851,"x_min":0,"x_max":0,"o":"m 468 -343 l 564 -79 l 361 -79 l 308 -343 z m 831 0 l 831 0 l 600 410 b 503 993 892 494 857 993 l 111 993 l 111 0 l 310 0 l 310 379 l 406 379 l 606 0 z m 310 794 l 485 794 b 485 572 619 794 619 572 l 310 572 l 310 572 z "},"Ş":{"ha":735,"x_min":0,"x_max":0,"o":"m 65 64 b 306 -7 157 17 243 -1 l 279 -139 b 414 -187 329 -129 411 -135 b 367 -225 414 -210 390 -222 b 246 -193 324 -233 278 -214 l 175 -293 b 525 -292 306 -387 460 -376 b 425 -53 607 -193 551 -62 l 432 -1 b 679 293 586 26 679 143 b 392 597 679 451 546 540 b 281 697 335 617 286 642 b 379 808 276 753 308 804 b 582 767 410 810 472 811 l 607 958 b 360 1000 479 1003 411 1003 b 79 697 194 992 79 864 b 374 394 79 531 218 451 b 476 293 429 375 472 350 b 374 193 482 239 432 197 b 90 272 328 189 204 192 z "},"ŗ":{"ha":851,"x_min":0,"x_max":0,"o":"m 468 -343 l 564 -79 l 361 -79 l 308 -343 z m 831 0 l 831 0 l 600 410 b 503 993 892 494 857 993 l 111 993 l 111 0 l 310 0 l 310 379 l 406 379 l 606 0 z m 310 794 l 485 794 b 485 572 619 794 619 572 l 310 572 l 310 572 z "},"ş":{"ha":735,"x_min":0,"x_max":0,"o":"m 65 64 b 306 -7 157 17 243 -1 l 279 -139 b 414 -187 329 -129 411 -135 b 367 -225 414 -210 390 -222 b 246 -193 324 -233 278 -214 l 175 -293 b 525 -292 306 -387 460 -376 b 425 -53 607 -193 551 -62 l 432 -1 b 679 293 586 26 679 143 b 392 597 679 451 546 540 b 281 697 335 617 286 642 b 379 808 276 753 308 804 b 582 767 410 810 472 811 l 607 958 b 360 1000 479 1003 411 1003 b 79 697 194 992 79 864 b 374 394 79 531 218 451 b 476 293 429 375 472 350 b 374 193 482 239 432 197 b 90 272 328 189 204 192 z "},"Ţ":{"ha":760,"x_min":0,"x_max":0,"o":"m 474 0 l 474 794 l 721 794 l 721 992 l 28 992 l 28 794 l 275 794 l 275 0 l 319 0 l 290 -161 b 422 -211 339 -150 419 -158 b 375 -251 422 -235 399 -249 b 258 -218 335 -260 289 -240 l 188 -324 b 532 -321 317 -424 467 -412 b 432 -71 613 -218 557 -81 l 442 0 z "},"ţ":{"ha":760,"x_min":0,"x_max":0,"o":"m 474 0 l 474 794 l 721 794 l 721 992 l 28 992 l 28 794 l 275 794 l 275 0 l 319 0 l 290 -161 b 422 -211 339 -150 419 -158 b 375 -251 422 -235 399 -249 b 258 -218 335 -260 289 -240 l 188 -324 b 532 -321 317 -424 467 -412 b 432 -71 613 -218 557 -81 l 442 0 z "},"Ť":{"ha":760,"x_min":0,"x_max":0,"o":"m 474 0 l 474 794 l 721 794 l 721 992 l 28 992 l 28 794 l 275 794 l 275 0 l 474 0 l 474 0 z m 429 1256 l 378 1190 l 328 1256 l 118 1256 l 314 1061 l 442 1061 l 640 1256 z "},"ť":{"ha":760,"x_min":0,"x_max":0,"o":"m 474 0 l 474 794 l 721 794 l 721 992 l 28 992 l 28 794 l 275 794 l 275 0 l 474 0 l 474 0 z m 429 1256 l 378 1190 l 328 1256 l 118 1256 l 314 1061 l 442 1061 l 640 1256 z "},"Ŧ":{"ha":760,"x_min":0,"x_max":0,"o":"m 138 339 l 275 339 l 275 0 l 474 0 l 474 339 l 621 339 l 621 506 l 474 506 l 474 794 l 721 794 l 721 992 l 28 992 l 28 794 l 275 794 l 275 506 l 138 506 z "},"ŧ":{"ha":760,"x_min":0,"x_max":0,"o":"m 138 339 l 275 339 l 275 0 l 474 0 l 474 339 l 621 339 l 621 506 l 474 506 l 474 794 l 721 794 l 721 992 l 28 992 l 28 794 l 275 794 l 275 506 l 138 506 z "},"ŝ":{"ha":735,"x_min":0,"x_max":0,"o":"m 65 64 b 379 -8 200 -6 324 -12 b 679 293 565 1 679 128 b 392 597 679 451 546 540 b 281 697 335 617 286 642 b 379 808 276 753 308 804 b 582 767 410 810 472 811 l 607 958 b 360 1000 479 1003 411 1003 b 79 697 194 992 79 864 b 374 394 79 531 218 451 b 476 293 429 375 472 350 b 374 193 482 239 432 197 b 90 272 328 189 204 192 l 65 64 l 65 64 z m 624 1068 l 436 1281 l 315 1281 l 129 1068 l 328 1068 l 376 1139 l 425 1068 z "},"Ŝ":{"ha":735,"x_min":0,"x_max":0,"o":"m 65 64 b 379 -8 200 -6 324 -12 b 679 293 565 1 679 128 b 392 597 679 451 546 540 b 281 697 335 617 286 642 b 379 808 276 753 308 804 b 582 767 410 810 472 811 l 607 958 b 360 1000 479 1003 411 1003 b 79 697 194 992 79 864 b 374 394 79 531 218 451 b 476 293 429 375 472 350 b 374 193 482 239 432 197 b 90 272 328 189 204 192 l 65 64 l 65 64 z m 624 1068 l 436 1281 l 315 1281 l 129 1068 l 328 1068 l 376 1139 l 425 1068 z "},"Ś":{"ha":735,"x_min":0,"x_max":0,"o":"m 65 64 b 379 -8 200 -6 324 -12 b 679 293 565 1 679 128 b 392 597 679 451 546 540 b 281 697 335 617 286 642 b 379 808 276 753 308 804 b 582 767 410 810 472 811 l 607 958 b 360 1000 479 1003 411 1003 b 79 697 194 992 79 864 b 374 394 79 531 218 451 b 476 293 429 375 472 350 b 374 193 482 239 432 197 b 90 272 328 189 204 192 l 65 64 l 65 64 z m 346 1253 l 282 1074 l 444 1074 l 567 1253 z "},"ś":{"ha":735,"x_min":0,"x_max":0,"o":"m 65 64 b 379 -8 200 -6 324 -12 b 679 293 565 1 679 128 b 392 597 679 451 546 540 b 281 697 335 617 286 642 b 379 808 276 753 308 804 b 582 767 410 810 472 811 l 607 958 b 360 1000 479 1003 411 1003 b 79 697 194 992 79 864 b 374 394 79 531 218 451 b 476 293 429 375 472 350 b 374 193 482 239 432 197 b 90 272 328 189 204 192 l 65 64 l 65 64 z m 346 1253 l 282 1074 l 444 1074 l 567 1253 z "},"Ŕ":{"ha":851,"x_min":0,"x_max":0,"o":"m 831 0 l 831 0 l 600 410 b 503 993 892 494 857 993 l 111 993 l 111 0 l 310 0 l 310 379 l 406 379 l 606 0 z m 310 794 l 485 794 b 485 572 619 794 619 572 l 310 572 l 310 572 z m 376 1258 l 311 1061 l 476 1061 l 600 1258 z "},"Ř":{"ha":851,"x_min":0,"x_max":0,"o":"m 831 0 l 831 0 l 600 410 b 503 993 892 494 857 993 l 111 993 l 111 0 l 310 0 l 310 379 l 406 379 l 606 0 z m 310 794 l 485 794 b 485 572 619 794 619 572 l 310 572 l 310 572 z m 458 1251 l 407 1186 l 357 1251 l 147 1251 l 343 1057 l 471 1057 l 669 1251 z "},"ŕ":{"ha":851,"x_min":0,"x_max":0,"o":"m 831 0 l 831 0 l 600 410 b 503 993 892 494 857 993 l 111 993 l 111 0 l 310 0 l 310 379 l 406 379 l 606 0 z m 310 794 l 485 794 b 485 572 619 794 619 572 l 310 572 l 310 572 z m 376 1258 l 311 1061 l 476 1061 l 600 1258 z "},"ř":{"ha":851,"x_min":0,"x_max":0,"o":"m 831 0 l 831 0 l 600 410 b 503 993 892 494 857 993 l 111 993 l 111 0 l 310 0 l 310 379 l 406 379 l 606 0 z m 310 794 l 485 794 b 485 572 619 794 619 572 l 310 572 l 310 572 z m 458 1251 l 407 1186 l 357 1251 l 147 1251 l 343 1057 l 471 1057 l 669 1251 z "},"Ĺ":{"ha":685,"x_min":0,"x_max":0,"o":"m 111 993 l 111 993 l 111 0 l 625 0 l 625 199 l 310 199 l 310 993 z m 189 1263 l 122 1065 l 293 1065 l 421 1263 z "},"ļ":{"ha":685,"x_min":0,"x_max":0,"o":"m 381 -343 l 476 -79 l 274 -79 l 221 -343 z m 111 993 l 111 993 l 111 0 l 625 0 l 625 199 l 310 199 l 310 993 z "},"ņ":{"ha":978,"x_min":0,"x_max":0,"o":"m 544 -339 l 640 -75 l 438 -75 l 385 -339 z m 310 540 l 310 540 l 813 -21 l 865 -21 l 865 992 l 665 992 l 665 431 l 164 1014 l 111 1014 l 111 0 l 310 0 z "},"Ľ":{"ha":685,"x_min":0,"x_max":0,"o":"m 111 993 l 111 993 l 111 0 l 625 0 l 625 199 l 310 199 l 310 993 z m 482 997 l 426 714 l 572 714 l 674 997 z "},"Ŀ":{"ha":685,"x_min":0,"x_max":0,"o":"m 111 993 l 111 993 l 111 0 l 625 0 l 625 199 l 310 199 l 310 993 z m 526 642 b 526 418 376 642 376 418 b 526 642 675 418 679 642 z "},"ĺ":{"ha":685,"x_min":0,"x_max":0,"o":"m 111 993 l 111 993 l 111 0 l 625 0 l 625 199 l 310 199 l 310 993 z m 189 1263 l 122 1065 l 293 1065 l 421 1263 z "},"ľ":{"ha":685,"x_min":0,"x_max":0,"o":"m 111 993 l 111 993 l 111 0 l 625 0 l 625 199 l 310 199 l 310 993 z m 482 997 l 426 714 l 572 714 l 674 997 z "},"ŀ":{"ha":685,"x_min":0,"x_max":0,"o":"m 111 993 l 111 993 l 111 0 l 625 0 l 625 199 l 310 199 l 310 993 z m 526 642 b 526 418 376 642 376 418 b 526 642 675 418 679 642 z "},"Ń":{"ha":978,"x_min":0,"x_max":0,"o":"m 310 540 l 310 540 l 813 -21 l 865 -21 l 865 992 l 665 992 l 665 431 l 164 1014 l 111 1014 l 111 0 l 310 0 z m 421 1261 l 347 1065 l 535 1065 l 675 1261 z "},"ń":{"ha":978,"x_min":0,"x_max":0,"o":"m 310 540 l 310 540 l 813 -21 l 865 -21 l 865 992 l 665 992 l 665 431 l 164 1014 l 111 1014 l 111 0 l 310 0 z m 421 1261 l 347 1065 l 535 1065 l 675 1261 z "},"Ň":{"ha":978,"x_min":0,"x_max":0,"o":"m 310 540 l 310 540 l 813 -21 l 865 -21 l 865 992 l 665 992 l 665 431 l 164 1014 l 111 1014 l 111 0 l 310 0 z m 529 1258 l 478 1193 l 428 1258 l 218 1258 l 414 1064 l 542 1064 l 740 1258 z "},"ŉ":{"ha":978,"x_min":0,"x_max":0,"o":"m 310 540 l 310 540 l 813 -21 l 865 -21 l 865 992 l 665 992 l 665 431 l 164 1014 l 111 1014 l 111 0 l 310 0 l 310 540 z "},"ň":{"ha":978,"x_min":0,"x_max":0,"o":"m 310 540 l 310 540 l 813 -21 l 865 -21 l 865 992 l 665 992 l 665 431 l 164 1014 l 111 1014 l 111 0 l 310 0 z m 529 1258 l 478 1193 l 428 1258 l 218 1258 l 414 1064 l 542 1064 l 740 1258 z "},"Ŋ":{"ha":978,"x_min":0,"x_max":0,"o":"m 678 129 l 678 -47 b 576 -135 678 -103 633 -135 l 526 -135 l 526 -325 l 582 -325 b 865 -47 744 -325 865 -225 l 865 992 l 665 992 l 665 431 l 164 1014 l 111 1014 l 111 0 l 310 0 l 310 540 z "},"ŋ":{"ha":978,"x_min":0,"x_max":0,"o":"m 678 129 l 678 -47 b 576 -135 678 -103 633 -135 l 526 -135 l 526 -325 l 582 -325 b 865 -47 744 -325 865 -225 l 865 992 l 665 992 l 665 431 l 164 1014 l 111 1014 l 111 0 l 310 0 l 310 540 z "},"Ō":{"ha":1176,"x_min":0,"x_max":0,"o":"m 589 -14 l 589 -14 b 589 1010 1272 -14 1272 1010 b 589 -14 -94 1010 -94 -14 z m 589 192 l 589 192 b 589 806 192 192 192 806 b 589 192 986 806 986 192 z m 407 1089 l 793 1089 l 793 1274 l 407 1274 z "},"Ŏ":{"ha":1176,"x_min":0,"x_max":0,"o":"m 589 -14 l 589 -14 b 589 1010 1272 -14 1272 1010 b 589 -14 -94 1010 -94 -14 z m 589 192 l 589 192 b 589 806 192 192 192 806 b 589 192 986 806 986 192 z m 593 1229 b 524 1288 556 1229 524 1243 l 383 1288 b 593 1088 371 1117 519 1088 b 801 1288 669 1088 815 1117 l 661 1288 b 593 1229 661 1243 631 1229 z "},"Ő":{"ha":1176,"x_min":0,"x_max":0,"o":"m 589 -14 l 589 -14 b 589 1010 1272 -14 1272 1010 b 589 -14 -94 1010 -94 -14 z m 589 192 l 589 192 b 589 806 192 192 192 806 b 589 192 986 806 986 192 z m 408 1268 l 340 1076 l 514 1076 l 643 1268 z m 713 1268 l 644 1076 l 818 1076 l 947 1268 z "},"ō":{"ha":1176,"x_min":0,"x_max":0,"o":"m 589 -14 l 589 -14 b 589 1010 1272 -14 1272 1010 b 589 -14 -94 1010 -94 -14 z m 589 192 l 589 192 b 589 806 192 192 192 806 b 589 192 986 806 986 192 z m 407 1089 l 793 1089 l 793 1274 l 407 1274 z "},"ŏ":{"ha":1176,"x_min":0,"x_max":0,"o":"m 589 -14 l 589 -14 b 589 1010 1272 -14 1272 1010 b 589 -14 -94 1010 -94 -14 z m 589 192 l 589 192 b 589 806 192 192 192 806 b 589 192 986 806 986 192 z m 593 1229 b 524 1288 556 1229 524 1243 l 383 1288 b 593 1088 371 1117 519 1088 b 801 1288 669 1088 815 1117 l 661 1288 b 593 1229 661 1243 631 1229 z "},"ő":{"ha":1176,"x_min":0,"x_max":0,"o":"m 589 -14 l 589 -14 b 589 1010 1272 -14 1272 1010 b 589 -14 -94 1010 -94 -14 z m 589 192 l 589 192 b 589 806 192 192 192 806 b 589 192 986 806 986 192 z m 408 1268 l 340 1076 l 514 1076 l 643 1268 z m 713 1268 l 644 1076 l 818 1076 l 947 1268 z "},"Ũ":{"ha":932,"x_min":0,"x_max":0,"o":"m 824 346 l 824 993 l 626 993 l 626 347 b 304 347 626 139 304 139 l 304 993 l 106 993 l 106 346 b 824 346 106 -126 824 -126 l 824 346 z m 349 1079 b 539 1069 393 1172 453 1072 b 694 1208 614 1067 669 1121 l 578 1260 b 385 1271 531 1168 472 1268 b 231 1131 310 1274 256 1215 z "},"Ū":{"ha":932,"x_min":0,"x_max":0,"o":"m 824 346 l 824 993 l 626 993 l 626 347 b 304 347 626 139 304 139 l 304 993 l 106 993 l 106 346 b 824 346 106 -126 824 -126 l 824 346 z m 288 1079 l 642 1079 l 642 1242 l 288 1242 z "},"Ŭ":{"ha":932,"x_min":0,"x_max":0,"o":"m 824 346 l 824 993 l 626 993 l 626 347 b 304 347 626 139 304 139 l 304 993 l 106 993 l 106 346 b 824 346 106 -126 824 -126 l 824 346 z m 469 1188 b 401 1247 433 1188 401 1201 l 263 1247 b 469 1044 249 1075 397 1044 b 678 1247 547 1044 690 1075 l 539 1247 b 469 1188 539 1201 507 1188 z "},"Ů":{"ha":932,"x_min":0,"x_max":0,"o":"m 824 346 l 824 993 l 626 993 l 626 347 b 304 347 626 139 304 139 l 304 993 l 106 993 l 106 346 b 824 346 106 -126 824 -126 l 824 346 z m 467 1251 b 467 1131 561 1251 558 1131 b 467 1251 375 1131 375 1251 z m 465 1354 b 465 1032 224 1354 224 1032 b 465 1354 707 1032 713 1354 z "},"Ű":{"ha":932,"x_min":0,"x_max":0,"o":"m 824 346 l 824 993 l 626 993 l 626 347 b 304 347 626 139 304 139 l 304 993 l 106 993 l 106 346 b 824 346 106 -126 824 -126 l 824 346 z m 289 1264 l 225 1074 l 389 1074 l 510 1264 z m 575 1264 l 511 1074 l 675 1074 l 796 1264 z "},"Ų":{"ha":932,"x_min":0,"x_max":0,"o":"m 824 346 l 824 993 l 626 993 l 626 347 b 304 347 626 139 304 139 l 304 993 l 106 993 l 106 346 b 511 -6 106 89 317 -28 b 460 -264 450 -75 413 -176 b 732 -318 507 -356 636 -353 l 719 -183 b 619 -171 689 -199 633 -199 b 719 86 590 -114 624 3 l 715 85 b 824 346 781 143 824 231 z "},"ũ":{"ha":932,"x_min":0,"x_max":0,"o":"m 824 346 l 824 993 l 626 993 l 626 347 b 304 347 626 139 304 139 l 304 993 l 106 993 l 106 346 b 824 346 106 -126 824 -126 l 824 346 z m 349 1079 b 539 1069 393 1172 453 1072 b 694 1208 614 1067 669 1121 l 578 1260 b 385 1271 531 1168 472 1268 b 231 1131 310 1274 256 1215 z "},"ū":{"ha":932,"x_min":0,"x_max":0,"o":"m 824 346 l 824 993 l 626 993 l 626 347 b 304 347 626 139 304 139 l 304 993 l 106 993 l 106 346 b 824 346 106 -126 824 -126 l 824 346 z m 288 1079 l 642 1079 l 642 1242 l 288 1242 z "},"ŭ":{"ha":932,"x_min":0,"x_max":0,"o":"m 824 346 l 824 993 l 626 993 l 626 347 b 304 347 626 139 304 139 l 304 993 l 106 993 l 106 346 b 824 346 106 -126 824 -126 l 824 346 z m 469 1188 b 401 1247 433 1188 401 1201 l 263 1247 b 469 1044 249 1075 397 1044 b 678 1247 547 1044 690 1075 l 539 1247 b 469 1188 539 1201 507 1188 z "},"ů":{"ha":932,"x_min":0,"x_max":0,"o":"m 824 346 l 824 993 l 626 993 l 626 347 b 304 347 626 139 304 139 l 304 993 l 106 993 l 106 346 b 824 346 106 -126 824 -126 l 824 346 z m 467 1251 b 467 1131 561 1251 558 1131 b 467 1251 375 1131 375 1251 z m 465 1354 b 465 1032 224 1354 224 1032 b 465 1354 707 1032 713 1354 z "},"ű":{"ha":932,"x_min":0,"x_max":0,"o":"m 824 346 l 824 993 l 626 993 l 626 347 b 304 347 626 139 304 139 l 304 993 l 106 993 l 106 346 b 824 346 106 -126 824 -126 l 824 346 z m 289 1264 l 225 1074 l 389 1074 l 510 1264 z m 575 1264 l 511 1074 l 675 1074 l 796 1264 z "},"ų":{"ha":932,"x_min":0,"x_max":0,"o":"m 824 346 l 824 993 l 626 993 l 626 347 b 304 347 626 139 304 139 l 304 993 l 106 993 l 106 346 b 511 -6 106 89 317 -28 b 460 -264 450 -75 413 -176 b 732 -318 507 -356 636 -353 l 719 -183 b 619 -171 689 -199 633 -199 b 719 86 590 -114 624 3 l 715 85 b 824 346 781 143 824 231 z "},"Ŵ":{"ha":1264,"x_min":0,"x_max":0,"o":"m 415 -21 l 8 993 l 232 993 l 432 486 l 626 983 l 636 983 l 831 486 l 1031 993 l 1254 993 l 849 -17 l 813 -17 l 631 424 l 450 -21 z m 924 1065 l 701 1271 l 558 1271 l 339 1065 l 575 1065 l 631 1133 l 688 1065 z "},"Ŷ":{"ha":901,"x_min":0,"x_max":0,"o":"m 354 0 l 354 447 l 8 993 l 250 993 l 453 651 l 656 993 l 899 993 l 551 447 l 551 0 l 354 0 l 354 0 z m 732 1078 l 518 1283 l 379 1283 l 167 1078 l 394 1078 l 449 1146 l 504 1078 z "},"ŵ":{"ha":1264,"x_min":0,"x_max":0,"o":"m 415 -21 l 8 993 l 232 993 l 432 486 l 626 983 l 636 983 l 831 486 l 1031 993 l 1254 993 l 849 -17 l 813 -17 l 631 424 l 450 -21 z m 924 1065 l 701 1271 l 558 1271 l 339 1065 l 575 1065 l 631 1133 l 688 1065 z "},"ŷ":{"ha":901,"x_min":0,"x_max":0,"o":"m 354 0 l 354 447 l 8 993 l 250 993 l 453 651 l 656 993 l 899 993 l 551 447 l 551 0 l 354 0 l 354 0 z m 732 1078 l 518 1283 l 379 1283 l 167 1078 l 394 1078 l 449 1146 l 504 1078 z "},"Ź":{"ha":743,"x_min":0,"x_max":0,"o":"m 696 0 l 696 0 l 696 200 l 326 200 b 685 993 446 464 565 728 l 685 993 l 83 993 l 83 800 l 389 800 b 31 0 269 535 150 267 l 31 0 z m 357 1272 l 290 1068 l 460 1068 l 588 1272 z "},"Ż":{"ha":743,"x_min":0,"x_max":0,"o":"m 696 0 l 696 0 l 696 200 l 326 200 b 685 993 446 464 565 728 l 685 993 l 83 993 l 83 800 l 389 800 b 31 0 269 535 150 267 l 31 0 z m 392 1289 b 392 1075 233 1289 233 1075 b 392 1289 549 1075 553 1289 z "},"ź":{"ha":743,"x_min":0,"x_max":0,"o":"m 696 0 l 696 0 l 696 200 l 326 200 b 685 993 446 464 565 728 l 685 993 l 83 993 l 83 800 l 389 800 b 31 0 269 535 150 267 l 31 0 z m 357 1272 l 290 1068 l 460 1068 l 588 1272 z "},"ż":{"ha":743,"x_min":0,"x_max":0,"o":"m 696 0 l 696 0 l 696 200 l 326 200 b 685 993 446 464 565 728 l 685 993 l 83 993 l 83 800 l 389 800 b 31 0 269 535 150 267 l 31 0 z m 392 1289 b 392 1075 233 1289 233 1075 b 392 1289 549 1075 553 1289 z "},"ſ":{"ha":660,"x_min":0,"x_max":0,"o":"m 607 794 l 607 794 l 607 993 l 111 993 l 111 0 l 310 0 l 310 794 l 607 794 z "},"Z":{"ha":743,"x_min":0,"x_max":0,"o":"m 696 0 l 696 0 l 696 200 l 326 200 b 685 993 446 464 565 728 l 685 993 l 83 993 l 83 800 l 389 800 b 31 0 269 535 150 267 l 31 0 l 696 0 z "}}}
